{"glyphs":{"0":{"ha":688,"x_min":33,"x_max":399,"o":"m 397 568 l 397 568 q 396 580 397 574 q 393 667 396 624 q 375 751 389 710 q 286 842 345 826 q 178 806 227 859 q 167 791 172 800 q 150 770 159 779 q 126 765 141 761 q 124 764 125 765 q 123 762 123 763 q 121 759 122 760 q 115 735 119 747 q 109 698 108 719 q 103 671 110 682 q 90 635 94 655 q 83 614 87 625 q 73 568 76 592 q 64 529 70 548 q 48 442 51 487 q 42 324 47 383 q 41 307 41 315 q 39 172 33 239 q 53 106 42 136 q 90 58 64 77 q 267 75 183 -4 q 311 130 292 98 q 335 192 326 159 q 348 229 341 211 q 375 326 367 276 q 378 349 377 338 q 393 457 387 403 q 397 568 399 512 m 346 583 l 346 583 q 307 295 348 443 q 262 175 290 230 q 187 85 235 120 q 133 65 161 68 q 114 81 123 65 q 101 119 106 97 q 92 225 91 172 q 99 330 94 277 q 102 366 101 347 q 123 494 109 431 q 136 562 130 528 q 197 728 153 655 q 242 781 216 760 q 301 802 268 801 q 323 781 317 802 q 342 693 337 738 q 346 583 348 648 z "},"1":{"ha":320,"x_min":-60,"x_max":299,"o":"m 201 735 l 201 735 q 182 688 191 711 q 176 671 178 679 q 158 627 167 649 q 121 532 138 580 q 79 394 99 463 q 61 334 70 364 q 51 302 56 318 q 21 180 30 243 q 12 142 19 159 q -18 120 5 126 q -22 118 -20 119 q -24 116 -23 117 q -57 92 -55 102 q -41 56 -60 83 q -17 52 -32 40 q 28 75 3 68 q 71 90 50 80 q 113 106 91 100 q 137 117 125 109 q 146 122 141 119 q 155 146 161 130 q 133 163 149 163 q 130 163 132 163 q 96 159 112 163 q 78 159 81 154 q 79 176 75 163 q 80 184 79 180 q 81 188 81 186 q 114 308 94 249 q 140 399 129 353 q 221 633 172 519 q 235 667 228 650 q 294 798 261 734 q 293 816 299 807 q 258 844 279 834 q 249 846 253 847 q 241 841 245 845 q 149 768 197 802 q 77 738 118 743 q 68 741 73 738 q 60 743 64 743 q 54 741 57 744 q 54 733 52 736 q 60 728 56 730 q 65 724 63 726 q 68 720 67 722 q 71 715 69 717 q 144 701 102 677 q 201 735 174 716 z "},"2":{"ha":396,"x_min":-118,"x_max":362,"o":"m -78 97 q -14 133 -37 99 q 18 157 -3 151 q 124 180 70 176 l 173 182 q 243 185 209 185 q 311 182 278 185 l 332 182 q 354 184 349 182 q 362 197 362 186 q 356 212 362 202 q 354 216 355 214 q 347 222 351 220 q 335 224 338 224 q 229 235 283 235 q 71 222 149 235 l 63 222 q 60 222 62 222 q 56 224 58 222 q 55 227 55 226 q 59 235 55 230 q 100 295 69 245 q 137 349 118 322 q 202 445 171 396 l 243 507 q 345 677 302 588 q 361 736 361 711 q 348 777 361 756 q 302 824 323 814 q 283 827 294 827 q 235 817 266 827 q 227 815 231 817 q 85 722 144 788 q 70 696 70 705 l 70 691 q 88 668 71 686 q 100 661 95 661 q 110 671 106 661 q 150 719 125 700 q 279 783 207 766 q 297 785 288 785 q 330 767 330 785 l 330 764 l 327 753 q 264 623 315 696 q 221 557 235 575 q 197 522 208 539 q 157 462 178 490 q 128 421 142 441 q 22 262 77 340 q -56 184 -17 205 q -102 154 -80 170 q -107 153 -104 153 l -113 153 q -118 150 -118 153 q -90 103 -118 144 q -79 97 -86 97 l -78 97 z "},"3":{"ha":413,"x_min":-68,"x_max":353,"o":"m 11 89 q 31 92 20 89 q 115 135 76 108 q 219 210 168 172 q 338 332 289 260 q 353 385 353 358 q 304 481 353 447 q 210 514 261 509 q 201 515 204 514 q 197 522 197 516 q 204 530 197 528 q 235 551 222 536 q 248 562 241 557 q 309 622 282 588 q 345 709 345 668 q 345 733 345 711 q 308 804 345 755 q 240 835 284 835 l 238 835 q 122 806 176 831 q 9 731 58 780 q 2 719 2 724 q 7 703 2 713 q 29 669 18 669 q 39 680 33 669 q 97 732 62 713 q 176 766 132 753 q 249 783 219 783 q 313 760 291 783 q 320 742 320 753 q 311 713 320 730 q 280 666 298 688 q 146 551 220 602 q 16 475 72 497 q -38 447 -12 463 l -40 446 q -68 418 -68 429 q -58 385 -68 408 q -42 370 -52 370 q -30 374 -36 370 q -17 382 -23 378 q 46 420 16 400 q 193 463 114 463 l 201 463 q 311 434 260 463 q 327 415 327 427 q 323 401 327 409 q 197 263 292 334 q 114 206 133 216 q -39 131 32 145 q -46 125 -46 130 q -43 117 -46 122 q -11 93 -31 100 q 11 89 0 89 z "},"4":{"ha":430,"x_min":7,"x_max":370,"o":"m 254 33 q 261 41 261 33 l 260 47 q 256 93 256 70 q 256 111 256 102 l 257 141 q 267 214 258 159 q 330 532 291 389 q 368 650 348 604 l 370 655 l 369 660 q 350 678 364 669 q 325 686 336 686 q 312 679 315 686 q 307 659 310 675 q 267 514 286 587 l 263 497 q 257 473 260 486 q 252 449 255 461 q 245 439 252 439 q 240 441 243 439 q 192 452 216 452 q 129 435 164 452 q 87 422 110 425 q 127 478 109 449 q 158 522 142 500 q 224 614 192 567 l 249 652 q 312 748 290 709 q 313 749 313 748 q 339 789 323 771 q 347 805 347 798 q 340 823 347 814 q 323 840 326 836 q 313 847 317 847 q 300 836 306 847 q 295 822 296 829 q 265 772 293 801 q 246 742 254 758 q 230 715 239 728 q 119 564 172 642 l 108 548 q 66 488 87 518 q 28 417 43 454 l 26 410 q 13 396 23 396 l 10 396 q 7 391 7 396 q 16 374 8 383 q 34 358 24 364 q 51 352 44 352 l 52 352 q 130 373 92 359 l 149 380 q 229 403 186 398 q 233 404 231 403 q 238 404 235 404 q 242 399 242 404 l 241 394 q 208 210 220 302 q 203 136 203 173 q 219 48 203 64 q 246 34 229 39 q 254 33 250 33 z "},"5":{"ha":404,"x_min":-105,"x_max":361,"o":"m 9 69 q 99 96 51 69 q 304 267 222 165 q 344 362 344 319 q 319 434 344 395 q 199 500 278 500 q 138 490 168 498 l 115 484 q 102 476 110 482 q 83 467 90 467 q 75 478 75 467 q 81 502 75 486 l 83 509 q 92 532 86 518 q 114 597 114 594 l 114 600 q 119 615 114 608 q 143 694 138 639 q 149 704 143 701 q 197 711 154 707 q 298 726 250 718 q 361 752 361 739 q 355 765 361 758 q 301 791 333 791 q 217 777 263 791 l 215 777 q 202 774 208 774 q 193 781 196 774 q 164 810 186 796 q 150 819 157 813 q 135 824 142 824 q 125 817 128 824 q 115 784 121 801 q 104 748 109 766 q 85 686 98 715 q 18 509 47 598 q 10 472 10 488 q 20 440 10 456 q 24 430 24 434 q 18 421 23 426 q 12 412 12 416 q 19 400 12 406 q 31 388 26 395 l 38 379 q 61 361 54 361 q 81 380 68 361 q 85 385 83 383 q 88 389 87 387 q 142 423 111 414 q 155 429 149 425 q 237 447 195 447 q 276 443 257 447 q 295 425 295 439 q 291 386 295 402 q 205 249 266 304 q 96 165 155 203 q -29 121 38 130 q -43 119 -37 119 q -62 122 -52 119 q -83 141 -73 125 q -103 155 -89 153 q -105 149 -105 152 q -102 142 -105 146 q -102 141 -102 141 q -79 115 -93 126 q -66 103 -73 109 q 9 69 -33 69 z "},"6":{"ha":438,"x_min":52,"x_max":400,"o":"m 218 66 q 279 94 250 66 q 385 242 349 157 q 400 308 400 278 q 340 404 400 368 q 302 415 321 415 q 271 407 287 415 q 209 370 237 392 l 204 366 q 144 313 172 342 q 102 241 116 285 q 98 264 98 250 l 99 269 q 178 514 107 376 l 188 534 q 291 677 226 616 l 296 681 q 374 721 334 721 q 381 728 381 722 q 378 736 381 732 q 334 767 359 767 q 310 761 323 767 q 238 692 274 745 q 205 652 222 671 q 172 602 184 631 q 157 576 166 589 q 140 549 147 564 q 108 478 121 501 q 58 328 75 406 q 52 276 52 302 q 70 187 52 231 q 168 81 101 117 q 218 66 194 66 m 178 109 l 176 109 q 124 141 140 109 q 119 163 119 152 q 128 196 119 176 q 178 274 145 240 l 194 288 q 286 354 234 328 q 336 373 317 373 q 361 342 361 373 q 306 203 355 264 q 267 155 288 178 q 178 109 223 109 z "},"7":{"ha":413,"x_min":-16,"x_max":372,"o":"m 22 29 q 26 35 26 29 l 25 45 q 32 88 25 68 q 42 138 38 113 q 132 382 62 258 q 167 400 142 400 q 212 410 191 400 q 224 426 224 418 q 215 442 224 433 q 201 449 208 448 q 186 448 194 449 l 177 447 q 171 452 171 447 q 174 458 171 454 q 176 460 175 458 q 364 733 239 564 q 372 752 372 743 q 366 769 372 761 q 351 791 363 780 q 328 798 344 798 q 130 783 221 783 q -5 803 55 783 l -9 804 q -14 798 -14 804 q -8 783 -14 792 q 16 755 6 758 q 145 734 79 734 q 237 738 211 734 q 276 739 243 739 q 291 745 283 739 l 294 745 q 297 744 295 745 q 300 741 298 743 q 301 735 301 739 l 298 732 l 298 731 q 236 646 266 690 l 211 610 q 113 456 157 536 q 91 443 107 443 q 31 450 40 450 q 24 442 24 450 q 36 415 24 428 q 62 400 48 401 q 75 395 73 400 q 71 383 75 389 q -9 128 9 262 l -12 112 q -16 86 -16 99 q 14 31 -15 50 q 22 29 18 29 z "},"8":{"ha":362,"x_min":26,"x_max":342,"o":"m 102 46 q 163 63 135 47 q 333 208 260 122 q 342 230 342 218 q 336 249 342 239 q 295 292 319 274 q 221 334 260 314 q 211 345 211 337 q 220 376 214 361 q 231 383 221 381 q 251 399 251 387 q 245 413 251 406 l 245 414 q 239 429 239 422 q 241 437 239 433 q 250 456 247 447 l 255 466 q 330 667 304 562 q 334 707 334 686 q 334 721 334 709 q 320 755 334 733 q 271 786 298 786 q 233 774 253 786 q 37 559 90 681 q 26 510 26 534 q 37 461 26 486 q 119 369 66 404 q 129 357 129 363 q 125 348 129 353 q 109 317 116 333 q 87 280 100 298 q 43 191 58 239 l 39 180 q 26 128 26 150 q 66 58 26 90 q 102 46 80 47 m 140 380 q 135 382 138 380 q 131 385 133 384 q 92 413 109 397 q 66 456 74 429 q 63 479 63 468 q 78 534 63 504 q 233 713 128 647 q 283 734 256 730 l 289 735 q 298 726 298 735 l 297 720 q 251 578 283 646 l 233 536 q 188 439 212 487 q 162 402 177 419 q 148 385 155 394 q 140 380 144 380 m 79 86 q 66 96 66 86 l 67 100 q 106 206 76 148 q 126 248 117 227 q 142 275 133 263 q 158 301 152 287 q 163 305 159 305 q 168 301 168 305 q 169 296 169 298 q 182 247 170 270 l 183 245 q 192 237 186 237 q 199 240 198 237 q 199 250 199 243 l 201 267 q 199 286 199 276 q 210 312 199 312 q 254 290 218 312 q 291 271 272 280 q 302 259 302 266 q 297 248 302 254 q 118 96 211 144 q 79 86 100 86 z "},"9":{"ha":421,"x_min":37,"x_max":386,"o":"m 105 66 q 128 71 115 66 q 200 140 165 89 q 233 180 222 170 q 267 231 254 201 q 281 256 272 244 q 298 283 291 268 q 322 338 309 311 q 380 505 360 414 q 386 556 386 530 q 368 646 386 602 q 270 751 337 715 q 221 766 245 766 q 159 739 189 766 q 52 590 90 676 q 37 525 37 555 q 98 428 37 465 q 135 418 117 418 q 168 426 151 418 q 229 463 200 441 q 234 467 231 465 q 294 519 267 490 q 336 591 322 548 q 340 579 339 585 q 339 568 340 573 l 339 564 q 260 319 331 454 l 250 298 q 147 156 212 217 q 109 124 128 137 q 64 111 90 111 q 57 104 57 111 q 59 96 57 100 q 105 66 80 66 m 101 460 q 77 490 77 460 q 132 629 83 568 q 172 677 151 655 q 257 723 216 723 l 264 723 q 314 692 298 723 q 319 670 319 681 q 310 636 319 658 q 259 559 293 592 l 244 545 q 166 486 210 510 l 153 478 q 101 460 119 460 z "},"\u0000":{"ha":694,"x_min":0,"x_max":0,"o":""}," ":{"ha":345,"x_min":0,"x_max":0,"o":""},"!":{"ha":194,"x_min":19,"x_max":218,"o":"m 36 364 l 36 364 q 44 325 35 336 q 78 311 53 313 q 93 324 96 309 q 92 377 87 351 q 103 429 96 404 q 109 450 106 439 q 111 470 111 460 q 119 503 110 488 q 146 577 141 537 q 153 609 149 593 q 165 642 159 626 q 181 689 176 664 q 194 736 185 713 q 208 802 206 768 q 214 828 208 815 q 212 844 218 839 q 199 852 207 850 q 194 854 197 854 q 174 860 184 859 q 155 854 164 862 q 153 851 153 852 q 153 847 153 849 q 153 846 153 846 q 112 635 142 739 q 104 607 109 621 q 104 602 104 604 q 90 557 98 579 q 56 444 68 501 q 48 415 52 429 q 43 398 46 406 q 36 364 35 382 m 93 231 l 93 231 q 76 258 96 255 q 73 258 75 258 q 58 260 65 258 q 37 259 42 266 q 31 238 31 252 q 28 215 29 227 q 21 153 27 184 q 22 133 19 144 q 34 117 24 123 q 73 138 66 102 q 75 146 74 142 q 76 151 76 149 q 89 211 83 182 q 93 231 91 222 z "},"\"":{"ha":155,"x_min":22,"x_max":155,"o":"m 24 751 l 24 751 q 26 736 22 742 q 36 727 30 731 q 57 723 46 720 q 64 730 62 726 q 65 741 65 735 q 73 779 66 761 q 81 809 79 793 q 83 814 81 812 q 86 821 86 818 q 81 827 87 824 q 78 830 79 829 q 61 837 71 836 q 57 837 60 837 q 49 837 53 838 q 43 831 45 836 q 33 789 35 810 q 24 751 30 769 m 99 736 l 99 736 q 99 732 99 734 q 99 724 99 728 q 126 701 100 698 q 136 707 134 702 q 136 718 137 712 q 136 724 136 721 q 151 791 136 760 q 153 802 155 799 q 146 808 151 806 q 121 814 134 814 q 111 806 113 814 q 110 805 110 806 q 99 736 100 771 z "},"#":{"ha":294,"x_min":-78,"x_max":378,"o":"m 33 204 q 40 218 40 204 l 40 233 q 65 364 40 282 q 74 394 69 378 q 109 410 78 410 q 135 414 123 410 q 145 416 140 416 q 160 410 153 416 q 164 402 164 406 q 162 394 163 397 q 160 387 161 390 q 150 301 150 345 q 157 230 150 266 q 183 214 161 214 q 198 233 198 216 l 198 247 q 201 302 198 275 q 203 356 203 330 q 212 389 205 374 q 218 410 216 399 q 243 427 222 425 l 266 427 q 322 414 295 427 q 332 411 327 411 q 340 419 340 411 q 338 427 340 422 l 336 429 q 274 474 320 474 l 262 474 q 242 494 242 474 q 244 504 242 498 q 247 515 245 509 q 268 555 253 547 q 286 559 275 559 q 305 557 294 559 q 318 557 311 557 l 324 557 q 367 542 352 557 q 372 538 368 539 q 378 547 378 538 q 376 555 378 551 q 333 599 365 588 q 300 613 315 604 q 286 627 286 622 q 291 640 286 632 q 297 652 297 648 l 297 654 q 311 714 297 681 q 316 741 316 729 q 277 777 316 771 l 273 778 q 264 775 268 778 q 254 728 260 772 q 203 616 239 616 l 176 616 l 176 617 q 138 624 145 617 q 136 633 136 627 q 139 654 136 641 q 155 760 151 707 q 140 789 155 778 q 119 796 130 796 q 102 784 102 796 l 103 764 q 98 727 103 746 q 92 701 94 714 q 76 623 89 661 q 53 602 70 603 q -8 589 22 600 q -63 577 -35 581 q -78 561 -78 575 l -78 558 q -42 523 -72 523 q -20 528 -32 523 q 13 536 -3 536 q 36 543 26 536 q 47 547 43 547 q 54 534 54 547 q 37 465 54 500 q 6 444 27 445 q -58 426 -28 441 q -71 409 -71 419 q -63 390 -71 401 q -59 383 -60 387 q -41 367 -52 367 q -27 373 -35 367 q -24 376 -25 374 q -4 387 -11 387 q 6 382 1 387 q 11 372 11 378 q 8 359 10 366 q 5 348 6 353 l 3 342 q -12 245 -12 295 l -12 231 q 6 212 -12 214 q 22 208 15 212 q 33 204 29 204 m 109 467 l 106 467 q 96 476 96 467 l 97 481 q 109 534 106 507 q 119 555 109 549 q 175 568 138 568 l 193 569 q 203 554 203 569 l 203 550 l 181 481 q 175 475 179 477 q 165 472 170 473 q 154 471 159 471 q 109 467 132 468 z "},"$":{"ha":390,"x_min":-68,"x_max":399,"o":"m 236 849 l 236 849 q 236 872 237 865 q 229 884 235 880 q 208 893 222 888 q 207 893 208 893 q 205 894 205 894 q 189 896 194 901 q 185 883 184 890 q 180 833 186 857 q 175 786 174 810 q 159 750 177 764 q 109 699 130 728 q 77 663 94 680 q 31 610 52 638 q -3 569 15 589 q -54 498 -33 536 q -56 494 -55 496 q -68 461 -68 473 q -48 431 -68 449 q -41 425 -45 427 q -24 410 -33 416 q -5 401 -16 403 q 17 398 6 400 q 81 400 49 391 q 105 405 93 404 q 120 406 113 406 q 124 409 122 407 q 127 411 125 410 q 132 411 129 412 q 135 406 134 409 q 135 399 136 403 q 135 397 135 398 q 129 324 134 360 q 124 278 126 301 q 124 269 124 273 q 119 239 124 252 q 92 222 114 227 q 89 220 90 222 q 88 214 87 218 q 91 212 89 212 q 94 212 92 212 q 95 212 94 212 q 118 205 112 211 q 123 182 123 199 q 124 168 123 175 q 126 134 124 151 q 143 75 130 102 q 188 33 157 49 q 188 33 188 33 q 192 31 190 31 q 195 32 193 31 q 197 40 200 35 q 187 60 190 49 q 172 181 173 119 q 195 225 170 211 q 203 229 199 227 q 221 239 213 233 q 231 245 226 242 q 309 304 272 273 q 314 310 311 307 q 385 391 356 345 q 384 443 399 418 q 349 470 369 463 q 306 477 328 477 q 254 476 280 479 q 252 476 254 476 q 240 476 246 475 q 215 473 227 477 q 198 469 202 467 q 197 485 195 471 q 205 576 201 530 q 211 638 208 607 q 215 684 214 661 q 218 698 216 691 q 220 711 219 704 q 220 719 220 715 q 224 744 220 731 q 238 767 227 756 q 262 785 250 777 q 292 809 278 795 q 301 814 296 812 q 312 812 307 816 q 314 803 315 809 q 310 793 313 798 q 298 772 304 783 q 286 750 292 761 q 280 727 278 735 q 296 711 281 720 q 307 708 302 707 q 316 717 311 709 q 331 743 324 730 q 349 773 339 759 q 359 797 356 784 q 357 823 363 810 q 317 859 344 846 q 290 859 304 866 q 257 838 273 850 q 252 832 254 836 q 247 825 250 828 q 238 825 243 823 q 235 832 235 828 q 235 840 235 836 q 236 849 237 845 m 163 672 l 163 672 q 155 595 159 633 q 145 495 149 545 q 142 473 144 484 q 140 463 140 468 q 136 457 138 459 q 130 452 134 454 q 95 441 113 444 q 12 430 54 435 q -5 431 3 429 q -19 440 -14 433 q -21 455 -23 448 q -14 471 -19 463 q 7 504 -3 487 q 47 562 25 535 q 67 586 57 574 q 102 627 83 608 q 125 652 114 638 q 148 678 136 666 q 150 680 149 679 q 156 684 153 682 q 162 685 159 686 q 165 682 165 684 q 163 677 165 680 q 163 672 163 674 m 288 443 l 288 443 q 340 445 319 442 q 353 424 364 446 q 300 357 332 387 q 298 356 298 357 q 247 309 273 331 q 192 271 220 289 q 184 266 188 268 q 178 266 180 263 q 176 272 176 268 q 176 286 176 279 q 178 321 174 304 q 185 395 185 358 q 192 420 186 412 q 214 431 198 428 q 241 437 228 433 q 288 443 267 446 z "},"%":{"ha":315,"x_min":-16,"x_max":298,"o":"m 20 123 q 27 136 25 123 q 49 200 30 156 l 70 254 q 153 448 104 347 q 169 484 161 466 q 189 530 177 508 q 229 610 210 569 q 269 703 245 642 q 292 761 280 732 q 295 772 295 767 q 288 791 295 782 q 259 802 276 802 q 242 787 244 802 q 234 761 241 783 q 188 646 218 701 q 167 600 175 624 q 132 519 151 559 q 109 467 120 493 q 85 415 98 440 q 28 279 61 364 q -3 197 14 237 q -16 150 -16 168 q -1 134 -16 136 q 10 130 6 132 q 20 123 16 123 m 79 570 q 102 579 91 570 q 153 690 153 623 l 151 702 q 115 785 151 758 q 66 801 93 801 l 53 800 q 30 781 33 799 q 20 745 27 763 q 8 693 8 717 q 4 666 8 679 q 0 642 0 654 q 20 596 0 619 q 77 570 41 574 l 79 570 m 55 601 q 45 610 45 601 l 45 632 q 73 748 51 689 q 97 776 82 776 q 110 764 106 776 q 115 724 115 745 q 87 642 115 691 q 72 614 82 629 q 70 611 71 613 q 55 601 64 601 m 231 214 q 251 223 238 214 q 253 227 252 224 q 272 269 260 249 q 298 334 298 313 q 286 367 298 350 q 233 393 267 393 q 197 366 207 393 q 176 261 179 321 q 174 254 174 257 q 203 225 174 239 q 211 221 205 225 q 231 214 223 214 m 237 306 l 236 317 q 244 351 236 336 q 253 359 248 359 q 260 353 260 359 q 256 338 260 348 q 237 306 253 315 z "},"&":{"ha":272,"x_min":6,"x_max":338,"o":"m 79 142 q 119 154 101 142 l 127 161 q 180 210 158 180 q 193 221 186 221 q 208 211 200 221 q 222 195 210 205 q 243 186 230 189 q 234 197 237 192 q 226 206 231 202 q 211 236 211 219 q 219 256 211 248 q 245 290 233 273 q 266 320 254 306 q 288 349 277 334 q 319 388 302 370 q 338 425 338 408 q 310 462 338 446 q 302 465 305 465 q 294 458 298 465 l 293 456 q 283 435 286 446 q 273 415 279 425 q 253 382 262 399 q 233 351 243 366 q 180 282 207 309 q 171 278 176 278 q 164 283 168 278 q 155 294 160 289 l 136 323 q 128 348 128 334 q 159 425 128 366 q 223 664 223 536 q 153 792 223 750 q 119 802 135 802 q 75 770 84 802 q 39 552 39 626 q 73 395 39 471 q 77 377 77 386 q 70 354 77 366 q 58 329 64 342 q 16 248 39 288 q 6 213 6 232 q 8 193 6 208 q 27 161 10 178 q 79 142 48 142 m 98 412 q 90 416 90 412 q 89 429 89 420 q 77 505 77 465 l 78 526 q 76 561 76 544 q 84 624 76 593 q 92 671 90 648 q 109 728 97 700 q 117 748 113 739 q 126 764 120 758 q 144 771 133 771 l 145 771 q 166 768 157 771 q 180 751 175 765 q 191 684 191 718 q 174 579 191 632 l 166 553 q 140 484 156 517 l 132 465 q 112 425 117 437 q 98 412 109 412 m 53 164 q 45 182 45 164 l 45 187 l 52 209 q 80 273 60 242 q 90 292 85 283 q 102 315 94 304 q 113 323 109 323 q 122 315 117 323 q 142 291 132 302 q 155 275 149 283 q 161 261 161 268 q 155 248 161 254 q 64 168 109 186 q 53 164 58 164 z "},"'":{"ha":56,"x_min":5,"x_max":59,"o":"m 26 723 l 32 724 q 42 734 42 724 l 41 740 q 56 814 41 782 q 59 822 59 819 q 51 831 59 826 q 25 836 39 836 q 16 828 18 836 l 16 827 q 5 758 5 793 l 5 750 q 26 723 5 723 z "},"(":{"ha":159,"x_min":2,"x_max":176,"o":"m 83 147 q 89 150 85 147 q 92 154 92 152 q 91 157 92 155 q 87 161 90 159 q 85 165 85 163 q 53 266 59 212 q 50 327 50 296 q 62 448 50 387 q 118 644 79 525 q 174 772 144 728 q 176 779 176 775 q 171 787 176 783 l 169 788 q 133 803 146 803 q 113 789 121 803 l 104 769 q 37 562 77 709 q 30 541 35 551 q 20 511 22 526 q 12 454 18 481 q 2 383 2 418 q 4 352 2 368 q 2 317 2 334 q 22 214 2 262 q 71 153 39 177 q 83 147 77 147 z "},")":{"ha":514,"x_min":6,"x_max":147,"o":"m 33 132 q 54 149 45 132 q 86 252 75 199 q 96 292 91 273 q 132 468 119 373 q 147 608 146 537 l 146 621 q 137 712 144 667 q 104 799 130 758 q 67 832 89 821 q 61 834 64 834 q 53 830 55 834 q 51 824 51 827 q 58 811 51 814 q 67 804 66 808 q 76 772 69 787 q 85 734 85 754 q 91 694 85 713 q 100 617 100 655 q 94 554 100 585 q 58 357 81 455 l 41 288 q 28 233 35 260 l 25 216 q 10 168 21 191 q 6 155 6 161 q 22 135 6 142 q 33 132 28 132 z "},"*":{"ha":130,"x_min":9,"x_max":145,"o":"m 64 689 q 73 701 73 691 q 76 721 75 715 q 78 728 77 727 q 83 729 78 729 q 89 723 87 729 q 96 715 91 717 q 113 722 113 715 q 111 724 113 723 q 104 739 106 731 l 100 748 q 96 761 96 755 q 115 774 96 772 l 130 775 q 140 775 135 775 q 145 780 145 776 q 140 784 145 784 q 126 785 135 785 q 120 785 122 785 l 111 785 q 106 791 106 785 q 109 797 106 795 q 113 800 112 798 q 121 812 117 806 q 129 826 125 819 q 132 844 132 833 l 133 847 q 122 856 133 856 q 104 839 109 856 q 96 831 101 831 q 90 839 92 831 l 87 844 q 79 859 85 855 q 71 863 75 863 q 64 854 64 863 l 64 850 q 65 847 64 849 q 66 842 66 844 q 57 834 64 834 q 48 838 54 834 q 41 841 45 841 q 35 833 35 841 q 37 828 35 831 q 51 805 41 815 q 58 793 58 800 q 52 783 58 785 q 28 781 35 783 q 14 778 21 778 q 9 774 9 778 q 12 770 9 770 l 16 770 q 24 769 20 770 q 33 768 28 768 q 39 769 36 768 q 44 770 41 770 q 50 768 47 770 q 52 764 52 765 l 52 762 l 21 716 q 16 704 16 711 q 25 701 18 701 q 38 699 31 699 q 47 701 42 699 q 53 703 49 703 q 55 698 54 702 q 57 691 56 694 q 64 689 58 689 z "},"+":{"ha":447,"x_min":31,"x_max":437,"o":"m 108 489 l 108 489 q 91 489 100 489 q 49 489 70 489 q 39 488 43 489 q 32 480 34 486 q 35 463 31 474 q 46 443 39 452 q 60 432 54 433 q 113 428 86 429 q 165 437 139 428 q 178 436 175 440 q 181 425 182 433 q 176 412 180 418 q 174 407 175 409 q 155 367 165 387 q 119 287 137 327 q 102 249 111 268 q 85 214 93 232 q 75 172 72 186 q 106 143 79 157 q 118 140 114 138 q 124 151 122 142 q 127 163 126 157 q 142 203 132 184 q 171 263 159 231 q 177 279 174 271 q 206 342 191 311 q 242 425 226 382 q 272 450 248 444 q 290 450 281 451 q 307 450 298 448 q 418 458 362 461 q 434 469 431 457 q 425 500 437 486 q 396 515 413 515 q 376 515 387 515 q 303 509 340 514 q 287 534 269 503 q 315 604 304 568 q 339 714 334 657 q 313 757 341 745 q 289 761 295 764 q 283 739 283 757 q 277 684 286 710 q 264 639 270 661 q 252 597 258 618 q 236 553 244 575 q 220 509 227 531 q 195 494 214 495 q 140 490 168 490 q 108 489 123 490 z "},",":{"ha":114,"x_min":-16,"x_max":92,"o":"m -4 -10 q 7 -5 1 -10 l 9 -4 q 33 4 22 4 q 46 9 42 4 l 48 13 q 79 61 66 36 q 92 130 92 87 q 71 167 92 153 l 66 169 q 56 174 60 174 q 46 161 46 174 q 47 155 46 159 q 47 137 47 152 q 36 82 47 109 q -9 14 16 39 q -16 3 -16 7 q -12 -6 -16 -1 q -4 -10 -7 -10 z "},"-":{"ha":297,"x_min":11,"x_max":314,"o":"m 85 450 l 223 454 q 295 460 260 454 l 300 460 q 314 469 314 463 q 312 472 314 471 q 307 475 310 473 q 302 477 304 476 q 218 496 266 496 l 179 495 l 135 495 l 109 494 q 21 491 31 492 q 11 484 11 490 q 26 475 11 479 l 30 474 q 54 460 46 470 q 85 450 61 450 z "},".":{"ha":91,"x_min":13,"x_max":75,"o":"m 50 163 q 66 176 59 163 q 75 210 75 191 l 75 218 q 66 237 75 230 q 40 249 53 249 q 28 247 35 249 q 13 216 13 239 l 13 212 q 25 181 13 197 q 50 163 37 165 z "},"/":{"ha":302,"x_min":6,"x_max":317,"o":"m 43 123 q 50 136 47 123 q 71 200 52 156 l 92 254 q 175 448 126 347 q 191 484 184 466 q 211 530 199 508 q 251 610 233 569 q 291 703 268 642 q 315 761 302 732 q 317 772 317 767 q 310 791 317 782 q 281 802 298 802 q 264 787 267 802 q 256 761 264 783 q 210 646 240 701 q 189 600 197 624 q 155 519 174 559 q 131 467 142 493 q 108 415 120 440 q 51 279 83 364 q 20 197 36 237 q 6 150 6 168 q 22 134 6 136 q 33 130 28 132 q 43 123 39 123 z "},":":{"ha":104,"x_min":18,"x_max":100,"o":"m 41 539 l 41 539 q 53 518 41 522 q 77 524 66 513 q 88 549 85 535 q 96 569 90 559 q 99 585 100 578 q 86 595 97 593 q 79 598 83 597 q 65 602 72 602 q 52 587 58 601 q 45 555 47 571 q 41 539 43 547 m 18 391 l 18 391 q 25 371 18 379 q 44 361 33 362 q 54 365 52 361 q 58 375 56 370 q 59 380 58 378 q 62 388 60 385 q 66 401 64 395 q 66 416 71 411 q 54 425 60 422 q 51 426 52 426 q 38 431 45 430 q 26 422 31 432 q 25 420 26 421 q 18 391 18 405 z "},";":{"ha":91,"x_min":-33,"x_max":85,"o":"m 48 391 l 48 391 q 40 412 48 403 q 21 421 32 420 q 13 418 15 422 q 9 411 10 415 q 7 406 8 408 q -22 357 -7 380 q -27 352 -24 354 q -32 346 -31 349 q -28 338 -33 342 q -25 336 -26 337 q -11 328 -18 330 q 5 332 -3 325 q 25 355 16 342 q 45 378 34 368 q 47 383 46 380 q 48 388 47 386 q 48 391 48 390 m 39 534 l 39 534 q 38 528 39 530 q 38 525 38 526 q 38 524 38 524 q 37 522 37 523 q 38 510 37 515 q 48 501 39 504 q 61 501 56 498 q 71 512 66 504 q 83 552 81 531 q 84 558 83 555 q 81 569 85 566 q 71 574 77 572 q 60 578 64 575 q 53 580 56 583 q 48 574 50 578 q 45 570 47 572 q 40 556 41 564 q 39 543 39 549 q 39 534 39 538 z "},"<":{"ha":329,"x_min":12,"x_max":348,"o":"m 269 183 q 302 203 279 183 l 307 205 q 319 224 319 213 q 313 235 319 231 q 291 254 300 243 q 275 269 283 262 q 206 336 236 299 q 165 385 186 361 q 133 423 149 404 q 122 448 122 436 q 138 473 122 462 q 195 521 168 495 q 252 568 222 547 q 300 612 278 588 q 332 641 315 627 q 348 667 348 655 q 346 677 348 672 q 309 719 334 703 q 306 718 308 718 q 302 715 304 718 q 262 671 284 692 q 235 643 248 658 q 174 586 207 612 q 124 543 148 566 q 80 505 103 522 q 12 425 12 452 q 41 395 12 398 q 77 381 62 392 q 121 333 97 366 q 145 305 133 319 l 237 210 q 269 183 258 183 z "},"=":{"ha":472,"x_min":43,"x_max":479,"o":"m 93 265 q 175 283 109 267 q 324 313 290 312 q 368 320 347 315 q 418 331 400 331 l 432 330 q 466 339 452 330 q 479 359 479 347 q 466 387 479 377 q 444 394 456 394 q 432 393 438 394 q 338 378 385 384 q 211 358 277 372 q 68 338 140 341 q 43 309 43 338 q 54 279 43 292 q 87 265 68 265 l 93 265 m 449 560 q 457 561 452 560 q 464 566 461 562 q 467 573 467 570 q 464 582 467 578 q 460 588 461 585 q 427 621 449 614 q 376 629 404 629 q 212 637 294 637 l 176 636 l 100 636 q 54 621 54 635 q 64 585 54 610 l 66 583 q 91 564 73 564 l 96 564 q 239 570 168 570 q 320 568 279 570 q 404 564 383 566 q 449 560 438 560 z "},">":{"ha":438,"x_min":57,"x_max":392,"o":"m 138 183 l 136 183 q 102 203 125 183 q 85 224 85 211 q 92 235 85 231 q 114 254 104 243 q 129 269 121 262 q 198 336 168 299 q 239 385 218 361 q 272 423 256 404 q 283 448 283 436 q 267 473 283 462 q 210 521 237 495 q 153 568 183 547 q 104 612 126 588 q 73 642 90 627 q 57 667 57 656 q 59 677 57 671 q 95 719 70 703 q 99 718 96 718 q 103 715 101 718 q 142 671 121 692 q 170 643 157 658 q 231 586 198 612 q 280 543 257 566 q 325 505 301 522 q 392 425 392 453 q 389 409 392 420 q 363 395 385 397 q 327 380 342 392 q 283 333 311 368 q 223 267 263 309 q 168 210 195 239 q 138 183 149 184 z "},"?":{"ha":281,"x_min":-37,"x_max":324,"o":"m 23 614 l 23 614 q 31 633 30 624 q 32 636 32 635 q 34 643 33 640 q 47 675 36 661 q 67 698 58 687 q 153 779 103 745 q 171 791 161 785 q 256 831 210 819 q 276 814 278 836 q 265 781 274 796 q 260 770 262 776 q 204 661 236 713 q 136 535 165 600 q 105 393 111 467 q 99 349 102 371 q 107 329 98 338 q 125 319 115 319 q 142 326 137 319 q 146 345 147 334 q 157 414 148 380 q 165 454 162 433 q 186 517 171 487 q 229 601 205 560 q 238 618 233 610 q 264 663 251 640 q 298 722 282 692 q 302 729 300 726 q 318 764 312 746 q 318 804 324 783 q 271 854 305 841 q 199 852 237 868 q 99 792 145 829 q 90 785 95 789 q -4 694 37 747 q 10 625 -37 648 q 16 620 14 623 q 23 614 19 616 m 94 177 l 94 177 q 94 169 94 173 q 94 156 94 162 q 103 141 96 146 q 119 134 110 136 q 129 137 125 133 q 134 146 132 140 q 136 151 134 149 q 144 192 144 171 q 145 205 144 199 q 136 232 146 220 q 110 245 125 244 q 98 234 99 245 q 95 192 97 212 q 94 177 94 184 z "},"@":{"ha":500,"x_min":6,"x_max":549,"o":"m 220 341 q 235 343 225 341 q 258 364 244 345 q 290 424 277 392 q 306 437 294 435 q 316 422 316 435 q 344 393 321 399 q 365 383 355 389 l 366 383 q 391 376 379 376 q 427 401 413 376 q 449 435 437 418 q 536 616 513 515 q 539 642 538 628 q 543 669 540 656 q 548 709 548 690 q 538 766 548 738 q 503 807 532 785 q 503 808 503 808 q 497 810 500 810 q 493 809 495 810 q 492 806 492 808 q 494 801 492 803 q 515 763 511 784 q 518 733 518 749 l 517 711 q 512 684 517 699 q 506 654 507 669 q 468 541 500 593 q 381 414 432 473 q 366 405 372 405 q 354 411 355 405 q 352 445 352 418 q 374 555 352 501 q 376 567 376 560 q 374 574 376 571 q 330 629 355 604 q 296 640 319 640 q 272 632 279 640 q 240 591 254 614 q 168 407 193 503 q 165 389 165 397 q 188 349 165 360 q 220 341 207 341 m 214 379 q 208 387 208 379 l 208 392 q 231 470 216 433 q 286 576 258 538 q 304 606 298 589 q 311 610 307 610 q 321 602 320 610 l 321 589 q 300 516 321 552 q 266 453 285 484 q 244 416 254 435 q 232 397 239 407 q 223 385 227 391 q 214 379 220 379 m 95 156 q 101 163 101 156 q 96 172 101 167 q 45 318 45 223 q 60 414 45 367 l 68 448 q 202 707 97 587 q 293 781 235 745 q 354 810 320 803 q 389 817 372 812 q 436 825 412 825 l 446 824 q 454 829 448 824 q 404 840 428 840 q 389 839 396 840 q 301 819 343 832 q 220 779 258 806 q 98 644 146 722 q 61 564 75 606 q 22 450 31 499 q 20 438 20 444 q 13 402 18 420 q 6 342 6 372 q 11 271 6 317 l 12 256 l 14 252 q 86 161 30 203 l 87 161 q 95 156 92 156 m 245 113 q 304 122 271 113 q 447 209 387 145 q 482 242 464 226 q 541 304 514 271 l 543 307 q 549 316 549 311 q 546 321 549 319 q 541 324 543 324 q 533 319 538 324 l 530 317 q 501 292 514 305 q 474 268 488 278 q 431 232 452 251 q 344 170 399 202 q 279 138 314 149 q 220 130 250 130 q 186 127 203 129 q 192 123 189 123 q 199 122 195 122 q 207 121 203 122 q 245 113 226 113 z "},"A":{"ha":550,"x_min":22,"x_max":570,"o":"m 118 -162 q 131 -159 125 -162 q 151 -123 136 -155 q 203 9 191 -39 q 227 85 214 47 q 288 279 245 135 q 307 298 291 296 q 385 306 323 300 q 402 292 402 306 q 396 217 402 273 q 387 139 387 170 q 385 116 387 127 q 384 94 384 104 q 385 73 384 83 q 392 62 387 68 q 404 53 398 56 q 413 50 410 50 q 425 61 425 52 l 423 75 l 423 81 q 422 93 423 87 q 422 104 422 99 q 423 122 422 113 q 436 216 432 168 q 453 309 443 298 q 480 317 460 317 q 521 319 500 317 q 539 320 530 320 q 560 324 549 321 q 570 340 570 328 q 544 357 568 357 l 541 357 l 538 357 q 519 359 530 357 q 496 360 509 360 q 467 357 488 360 q 454 368 454 357 l 455 377 q 469 467 463 422 q 508 677 479 562 q 555 867 555 851 q 544 905 555 886 q 526 915 537 915 q 517 910 521 915 q 496 884 507 896 q 477 859 486 871 q 401 726 434 795 q 377 679 389 702 q 286 439 333 591 q 260 351 281 422 q 236 336 255 336 l 233 336 l 231 336 q 221 340 222 336 q 220 349 220 344 q 224 419 220 362 l 222 419 l 223 433 q 210 491 223 476 q 161 516 197 505 q 149 518 155 518 q 123 496 132 518 q 85 385 99 442 q 75 346 81 366 q 66 307 72 336 q 53 240 60 278 q 45 192 45 210 q 40 157 44 174 q 22 6 22 82 q 26 -60 22 -26 q 69 -134 27 -109 q 81 -144 77 -138 q 104 -160 89 -155 q 118 -162 112 -162 m 90 -127 q 76 -117 83 -127 q 60 -52 61 -92 q 56 -14 56 -34 q 65 70 56 14 q 98 244 75 166 q 109 289 104 267 q 121 340 114 315 q 132 375 127 357 q 153 437 141 406 q 170 462 161 462 q 178 457 176 462 q 180 416 180 452 q 179 377 180 382 q 178 367 178 372 q 180 350 178 359 q 182 342 182 346 q 174 334 182 334 l 164 336 q 157 328 157 336 q 159 302 159 310 q 162 281 159 290 q 178 264 168 264 q 202 273 188 264 q 223 280 217 280 q 236 269 236 280 q 230 247 236 263 q 214 197 222 219 q 199 145 205 172 q 176 66 191 104 q 161 19 168 43 q 123 -76 151 -14 q 90 -127 102 -127 m 318 349 l 315 349 q 305 354 305 349 q 307 360 305 357 q 359 524 345 480 q 444 713 394 621 q 471 769 458 740 q 481 786 475 778 q 482 790 482 789 q 483 791 482 791 q 486 789 484 791 q 490 782 490 787 q 488 777 490 780 q 459 669 469 724 q 446 609 452 629 q 437 559 438 585 q 429 498 435 529 q 423 450 425 475 q 394 355 416 356 l 389 355 q 318 349 381 355 z "},"B":{"ha":543,"x_min":-22,"x_max":533,"o":"m 25 7 q 63 16 45 7 q 65 18 64 17 q 69 19 67 18 q 72 19 71 19 l 76 18 q 85 16 81 16 q 98 27 92 16 q 115 45 104 39 l 163 75 q 275 149 259 135 q 289 158 278 151 q 312 175 299 165 q 335 191 326 184 q 427 281 389 227 l 432 288 q 460 363 460 324 q 429 444 460 403 q 417 456 425 452 q 359 473 390 473 q 305 467 340 473 q 276 461 291 464 q 245 454 261 459 q 225 449 229 449 q 220 453 220 449 l 220 454 q 314 537 222 458 q 496 699 479 675 q 509 715 502 707 q 533 775 533 741 l 532 787 q 492 857 522 836 q 441 869 470 869 q 382 864 411 869 q 231 822 293 847 q 204 811 218 816 q 127 778 165 797 l 123 776 q 5 663 31 731 l 5 661 q 4 654 4 659 l 5 652 q 11 642 8 647 q 30 610 20 626 q 41 604 34 604 q 54 609 48 604 q 60 624 60 614 q 57 634 60 630 q 53 641 53 637 q 56 646 53 644 q 111 703 79 678 q 149 728 130 715 q 171 743 169 741 q 188 750 178 750 q 198 748 195 750 q 201 740 201 746 l 200 736 l 198 713 q 168 563 197 675 l 162 543 q 149 500 158 522 q 145 485 146 493 q 114 439 144 457 q 100 429 106 434 q 74 412 88 419 q 21 374 45 397 q 15 361 15 368 q 18 351 15 357 q 28 336 24 344 q 46 319 34 319 q 66 328 56 319 q 68 329 67 329 q 103 348 85 340 q 107 349 105 349 q 113 345 113 349 l 111 340 q 88 245 109 334 q 66 149 73 177 q 62 117 63 134 q 57 85 60 101 q 39 60 53 69 q -16 47 13 47 q -22 41 -22 47 q -13 21 -22 30 q 25 7 0 7 m 113 103 l 113 105 q 133 237 113 130 q 170 377 159 370 q 269 414 213 400 q 328 425 294 422 q 349 427 338 426 q 371 429 360 429 q 413 427 388 429 q 437 414 420 427 q 444 405 444 409 q 444 402 444 404 q 443 400 443 401 q 386 297 430 340 q 186 146 318 227 q 134 113 159 130 q 113 103 123 106 m 201 505 q 192 509 192 505 l 203 543 q 216 598 212 570 q 225 635 218 611 q 235 675 231 659 q 241 690 237 683 q 250 730 250 707 q 255 753 250 739 q 270 780 261 767 q 290 794 279 793 q 347 812 312 796 q 405 821 375 821 q 435 824 420 821 q 463 827 449 827 q 509 817 489 827 q 513 812 513 815 q 512 808 513 810 q 511 806 511 806 q 391 659 481 737 q 358 621 367 635 q 243 534 258 544 q 205 507 224 521 q 201 505 203 505 z "},"C":{"ha":490,"x_min":18,"x_max":487,"o":"m 203 65 q 178 67 191 65 q 92 107 121 80 q 41 171 57 132 q 26 223 29 200 q 18 314 18 278 l 18 345 q 29 430 18 391 q 37 463 33 446 q 53 515 46 501 q 62 540 58 527 q 74 569 67 555 q 84 591 79 581 q 102 631 92 613 q 117 661 111 646 q 133 688 124 675 q 144 706 140 696 q 286 865 203 810 q 350 888 309 883 q 384 882 368 888 q 403 876 399 876 l 405 876 q 417 879 411 879 q 443 867 427 879 q 452 861 447 864 q 458 852 458 858 q 455 844 458 848 q 437 789 444 818 q 431 768 435 779 q 416 707 419 718 q 413 684 413 696 l 413 675 q 412 652 413 664 q 417 648 412 650 q 421 647 420 648 q 426 644 422 646 q 435 635 435 642 q 426 628 435 628 q 382 649 401 628 q 363 700 363 671 q 366 736 363 718 q 380 798 366 755 q 389 829 389 823 q 384 841 389 836 q 374 845 379 845 q 368 844 371 845 q 281 785 326 831 q 229 727 251 758 q 163 627 195 685 l 162 623 q 140 598 153 603 q 136 592 136 596 q 136 589 136 591 q 137 584 137 587 q 132 572 137 578 q 107 522 117 549 l 107 521 q 103 512 105 517 q 97 504 102 508 q 93 495 93 499 q 95 489 93 492 q 96 484 96 486 q 94 477 96 480 q 77 429 77 458 l 77 424 q 66 376 67 401 l 65 358 q 60 297 60 329 q 96 134 60 194 q 164 98 121 98 q 229 112 201 98 l 242 117 q 318 175 283 134 l 347 205 l 348 205 q 448 337 401 254 q 471 368 458 353 q 479 372 476 372 q 487 365 487 372 q 477 317 487 338 q 454 275 467 296 l 433 240 q 415 213 420 217 q 409 205 410 208 q 396 185 405 193 q 390 177 393 181 q 340 130 370 149 q 318 112 327 121 q 298 99 309 104 q 278 87 287 95 q 203 65 244 65 z "},"D":{"ha":564,"x_min":9,"x_max":531,"o":"m 528 688 l 528 688 q 524 615 531 651 q 519 593 521 604 q 510 555 516 574 q 471 469 495 510 q 401 376 441 419 q 382 353 391 365 q 352 319 368 335 q 341 308 347 313 q 284 256 313 281 q 192 180 240 216 q 146 144 169 163 q 134 134 140 139 q 119 110 119 121 q 125 82 119 98 q 125 79 125 81 q 127 68 128 75 q 113 62 124 55 q 111 64 112 63 q 91 83 100 72 q 72 87 83 93 q 33 92 50 79 q 18 108 25 99 q 12 115 14 111 q 11 119 9 117 q 14 123 12 121 q 15 123 14 123 q 40 140 26 134 q 64 183 68 153 q 68 302 60 243 q 71 319 69 311 q 82 392 75 355 q 87 420 85 406 q 112 545 97 483 q 121 578 117 562 q 140 656 131 617 q 151 702 145 679 q 163 752 158 727 q 165 764 165 758 q 170 785 165 774 q 160 784 164 786 q 154 778 157 781 q 149 774 152 776 q 149 773 149 774 q 94 718 114 751 q 83 695 88 707 q 73 669 79 682 q 71 666 72 668 q 67 659 70 662 q 64 654 66 657 q 62 650 63 652 q 58 649 60 648 q 58 649 58 649 q 50 654 54 651 q 43 662 45 657 q 35 679 41 671 q 27 710 23 695 q 40 739 31 725 q 42 742 41 741 q 97 799 64 776 q 138 828 117 814 q 176 854 157 841 q 203 867 188 863 q 216 871 210 869 q 310 899 262 890 q 317 901 313 900 q 375 903 347 909 q 386 901 380 902 q 406 895 396 899 q 422 882 415 891 q 429 878 425 880 q 433 876 431 877 q 483 830 465 857 q 510 777 501 804 q 511 776 511 777 q 522 730 519 749 q 524 712 524 712 q 528 688 526 700 m 500 669 l 500 669 q 507 726 506 698 q 506 728 506 728 q 506 730 506 729 q 504 739 506 734 q 499 759 500 749 q 490 786 496 773 q 491 791 489 789 q 464 827 479 813 q 433 849 448 842 q 407 861 417 857 q 397 864 397 864 q 374 863 386 865 q 329 860 352 859 q 288 850 308 861 q 269 842 279 845 q 258 838 264 840 q 229 797 233 824 q 228 787 229 792 q 197 652 215 719 q 193 640 195 646 q 180 588 184 614 q 170 538 176 562 q 160 492 164 515 q 157 477 159 485 q 148 425 153 450 q 137 369 142 397 q 126 317 132 342 q 120 260 121 289 q 118 237 119 248 q 116 209 117 223 q 127 202 115 195 q 130 204 128 203 q 167 234 151 216 q 168 234 168 234 q 168 235 168 235 q 169 235 168 235 q 202 258 188 243 q 222 273 212 267 q 231 281 227 277 q 239 288 235 286 q 301 343 274 312 q 342 387 321 366 q 387 436 366 410 q 477 581 441 504 q 499 662 494 620 q 500 669 500 665 z "},"E":{"ha":492,"x_min":34,"x_max":507,"o":"m 120 71 q 258 130 175 78 q 279 141 268 136 q 320 164 298 150 q 342 178 330 171 l 374 197 q 431 229 406 218 q 479 258 457 236 q 496 270 485 266 q 507 290 507 275 q 503 295 507 295 l 498 294 q 437 272 466 287 l 380 247 q 334 222 350 232 q 319 214 327 218 q 304 205 311 210 q 269 184 286 194 l 248 173 q 180 136 215 153 q 98 111 140 117 l 79 113 q 65 134 65 115 q 81 212 65 175 l 83 217 q 96 242 89 230 q 110 268 104 254 q 130 294 116 282 q 142 308 136 301 q 148 314 144 311 l 165 332 q 217 381 195 366 q 240 401 229 390 q 301 437 265 427 q 307 444 307 438 q 299 465 307 449 q 296 471 297 467 q 282 483 289 483 q 271 479 277 483 q 183 452 229 462 q 147 448 165 448 q 93 458 120 448 q 69 503 69 467 q 94 578 69 534 q 102 594 98 586 q 136 644 117 621 l 140 648 q 208 724 179 697 q 234 751 221 737 q 271 785 251 770 l 282 795 q 364 846 319 828 q 418 863 398 861 q 423 857 423 863 q 419 849 423 852 q 397 833 410 840 q 387 815 391 829 l 387 811 q 401 800 387 800 q 450 827 430 805 q 456 842 456 833 q 446 872 456 852 l 446 873 q 399 902 431 902 q 380 900 391 902 q 295 860 334 888 q 171 752 226 814 q 119 692 144 722 q 44 540 44 597 q 56 490 44 514 l 56 489 q 94 431 68 455 q 157 406 121 408 q 159 406 157 406 q 162 405 160 406 q 165 400 165 405 q 161 393 165 397 q 128 359 148 382 q 43 224 71 301 q 34 179 34 202 q 68 94 34 132 q 119 71 88 71 l 120 71 z "},"F":{"ha":406,"x_min":35,"x_max":631,"o":"m 631 838 l 631 838 q 631 888 631 863 q 589 886 610 890 q 542 881 566 884 q 468 871 505 876 q 433 865 450 867 q 395 859 414 861 q 254 825 323 846 q 252 825 252 825 q 245 824 248 824 q 240 825 243 823 q 239 829 239 827 q 241 833 239 831 q 243 836 242 835 q 243 838 243 838 q 243 840 243 840 q 246 856 244 848 q 253 891 250 873 q 254 895 253 893 q 254 905 254 900 q 250 915 254 910 q 218 937 235 928 q 211 938 214 939 q 206 932 208 937 q 201 912 203 922 q 201 909 201 911 q 195 866 197 888 q 189 817 194 841 q 157 792 182 791 q 146 790 151 793 q 121 773 133 783 q 96 756 109 764 q 91 752 93 755 q 90 747 90 750 q 91 738 90 742 q 98 706 92 721 q 106 699 101 700 q 116 702 111 698 q 122 708 119 705 q 149 728 133 721 q 159 734 154 732 q 151 685 158 709 q 149 680 150 682 q 134 625 142 652 q 118 570 125 597 q 111 544 115 557 q 99 501 104 523 q 94 491 98 495 q 84 486 90 488 q 81 488 81 486 q 80 492 80 489 q 80 495 81 494 q 78 498 80 497 q 53 468 72 478 q 45 463 49 466 q 41 460 43 461 q 38 457 39 458 q 37 453 37 455 q 39 440 38 447 q 44 419 41 429 q 58 402 47 409 q 60 396 60 399 q 61 383 61 390 q 60 349 64 366 q 56 322 57 336 q 48 260 53 291 q 41 205 44 233 q 45 101 35 153 q 65 68 49 81 q 67 67 66 68 q 73 64 70 65 q 79 64 76 62 q 84 70 83 66 q 83 77 84 74 q 83 79 83 78 q 81 161 78 119 q 81 172 81 166 q 88 235 83 203 q 92 256 90 245 q 99 301 98 277 q 99 307 99 304 q 99 317 99 312 q 102 325 100 321 q 109 346 107 335 q 111 352 110 349 q 117 378 113 365 q 130 428 125 402 q 136 445 131 439 q 153 452 142 450 q 161 454 157 454 q 235 467 197 463 q 320 463 278 471 q 329 458 325 461 q 343 450 336 453 q 353 446 348 448 q 360 445 357 443 q 363 452 363 448 q 347 494 361 476 q 298 519 329 517 q 293 519 296 519 q 270 522 281 521 q 168 512 218 521 q 154 512 156 510 q 155 526 152 514 q 161 547 157 536 q 167 572 165 559 q 180 618 172 595 q 189 647 184 633 q 195 672 192 660 q 206 709 201 690 q 216 745 210 728 q 218 753 217 749 q 225 763 220 760 q 235 770 229 767 q 256 777 245 775 q 263 779 260 778 q 298 789 281 782 q 342 802 320 798 q 353 803 348 802 q 364 805 358 804 q 385 809 375 806 q 439 820 411 818 q 469 824 454 821 q 512 830 490 828 q 537 833 524 831 q 631 838 584 840 z "},"G":{"ha":586,"x_min":37,"x_max":623,"o":"m 153 82 q 180 87 167 82 q 249 136 222 101 q 258 146 253 142 q 315 195 290 168 q 363 250 340 222 q 406 298 384 275 q 429 325 418 311 q 434 328 431 328 q 436 328 435 328 q 440 322 440 326 q 436 308 440 319 q 416 258 426 284 q 402 187 402 222 q 438 90 402 124 q 447 85 442 85 q 454 87 450 85 q 448 119 448 102 l 447 133 q 456 206 447 176 l 458 210 q 486 283 468 248 q 531 385 506 334 l 547 420 l 558 441 q 576 484 570 462 l 577 486 q 581 503 580 494 q 576 522 581 513 q 540 543 562 543 q 475 524 527 543 l 464 519 q 283 475 377 485 q 214 486 244 475 q 199 500 199 490 q 205 513 199 505 q 222 541 216 526 q 238 568 229 555 q 256 593 246 576 q 296 651 274 624 q 440 804 366 741 q 561 861 518 861 q 576 850 576 861 q 527 738 576 815 l 518 724 q 486 679 505 699 q 465 652 465 660 q 489 625 465 642 q 507 618 496 618 q 516 629 511 619 q 579 733 560 702 q 591 753 586 743 q 604 777 597 765 q 623 827 623 805 q 614 850 623 840 q 526 892 580 892 q 436 857 475 887 q 328 761 376 815 q 223 631 272 699 q 178 561 189 582 q 155 543 170 543 q 144 545 151 543 q 151 524 151 535 q 146 508 151 516 q 123 463 134 486 l 116 449 q 70 344 94 408 q 57 308 64 326 q 37 203 37 258 q 45 159 37 175 q 115 93 71 118 q 153 82 134 82 m 117 116 q 93 131 102 116 q 82 178 82 152 q 81 188 82 183 q 85 216 83 201 q 110 308 87 262 q 123 342 119 325 q 145 395 132 370 l 178 465 q 190 475 182 475 q 208 467 197 475 q 209 466 208 466 q 291 441 247 441 q 311 442 301 441 q 471 482 394 452 q 496 488 484 486 q 518 496 508 490 l 521 496 q 527 488 526 496 q 503 441 527 481 q 490 431 498 434 q 435 378 477 425 q 398 336 417 357 q 349 286 373 312 q 267 206 309 245 l 262 202 q 152 124 214 155 q 117 116 132 116 z "},"H":{"ha":438,"x_min":-66,"x_max":446,"o":"m 258 193 l 258 193 q 258 185 258 189 q 258 165 258 175 q 259 160 258 163 q 260 148 259 154 q 267 137 262 142 q 318 114 288 117 q 341 128 336 114 q 336 140 345 136 q 331 142 334 141 q 318 147 324 144 q 307 163 306 151 q 307 182 307 172 q 309 224 307 203 q 326 350 316 288 q 328 363 328 357 q 331 383 329 374 q 342 426 336 405 q 356 490 351 457 q 361 514 358 502 q 364 531 363 523 q 372 562 367 547 q 380 602 377 581 q 380 606 380 604 q 389 650 383 628 q 397 679 393 665 q 407 714 402 696 q 415 744 410 729 q 425 783 420 763 q 430 803 428 793 q 442 850 435 827 q 439 867 446 860 q 406 888 424 880 q 399 889 402 889 q 394 887 396 889 q 390 882 392 884 q 384 874 387 878 q 381 865 381 870 q 378 812 382 838 q 359 729 370 770 q 352 701 355 715 q 324 570 337 635 q 322 559 323 564 q 315 538 319 542 q 294 536 310 534 q 222 530 257 542 q 181 519 201 524 q 157 513 170 516 q 134 512 142 508 q 132 538 126 516 q 133 542 132 540 q 134 545 134 543 q 145 583 139 564 q 157 620 152 601 q 159 636 158 628 q 165 665 161 651 q 188 768 185 714 q 190 779 189 774 q 194 854 200 817 q 136 922 182 903 q 102 917 119 930 q 53 853 73 889 q 35 821 43 837 q 23 797 29 808 q -9 722 4 760 q -16 704 -12 713 q -38 612 -32 659 q -32 544 -42 577 q -13 517 -26 526 q 16 503 1 509 q 20 502 18 503 q 25 501 22 500 q 29 505 28 502 q 30 509 31 507 q 26 512 28 511 q 15 533 18 522 q 10 555 12 544 q 9 562 10 559 q 12 618 7 591 q 14 631 14 625 q 39 715 20 675 q 45 732 43 724 q 47 739 46 735 q 53 756 50 747 q 65 770 57 764 q 71 780 69 774 q 73 784 71 782 q 123 865 92 828 q 123 867 123 866 q 129 873 126 871 q 137 873 132 876 q 143 868 141 872 q 146 860 146 864 q 147 856 147 858 q 148 852 147 854 q 149 822 151 838 q 148 805 148 813 q 134 718 147 760 q 120 662 127 690 q 99 583 111 623 q 79 514 88 549 q 75 500 77 507 q 52 475 70 483 q 41 469 47 472 q -42 423 -3 450 q -64 401 -62 410 q -55 374 -66 393 q -54 371 -54 372 q -52 368 -53 369 q -26 364 -39 351 q -5 382 -17 375 q 7 391 1 387 q 25 399 14 397 q 39 388 39 401 q 37 376 38 382 q 37 376 37 376 q 30 350 33 363 q 18 295 21 323 q 12 271 17 283 q 5 247 7 260 q -4 218 4 231 q -5 214 -5 216 q -5 212 -4 214 q -12 178 -8 195 q -28 96 -19 137 q -38 24 -37 60 q -38 22 -38 23 q -38 15 -38 19 q -35 9 -37 12 q -2 -10 -20 -5 q 10 -1 10 -13 q 12 20 9 9 q 14 39 14 30 q 20 94 14 66 q 22 98 21 96 q 52 242 35 170 q 56 262 54 252 q 65 300 60 281 q 95 401 82 351 q 100 422 98 412 q 131 452 106 446 q 132 452 131 452 q 202 472 168 460 q 258 484 229 481 q 286 488 272 485 q 301 471 303 490 q 297 447 300 458 q 294 434 295 440 q 285 376 289 405 q 274 309 280 342 q 260 211 265 260 q 258 193 259 202 z "},"I":{"ha":231,"x_min":-39,"x_max":293,"o":"m 203 549 l 203 549 q 204 549 203 549 q 213 568 208 557 q 216 591 217 578 q 217 597 216 594 q 252 688 236 642 q 258 708 255 699 q 264 719 261 713 q 271 736 270 728 q 277 772 271 755 q 283 793 281 783 q 252 853 293 844 q 216 848 233 859 q 165 807 187 831 q 138 769 149 789 q 126 722 127 748 q 126 721 126 722 q 127 706 125 713 q 135 696 128 699 q 172 685 151 689 q 191 680 181 683 q 182 758 152 719 q 189 766 186 762 q 202 785 195 777 q 208 793 205 789 q 218 805 212 800 q 232 805 224 809 q 238 791 239 800 q 233 773 237 782 q 233 770 233 772 q 220 720 225 745 q 201 650 213 684 q 181 592 190 622 q 174 572 178 582 q 145 488 161 530 q 140 476 143 482 q 132 448 136 462 q 120 411 127 429 q 75 283 93 349 q 58 232 67 258 q 33 137 41 185 q 18 106 29 115 q -13 94 7 97 q -18 92 -16 93 q -36 85 -34 90 q -33 66 -39 81 q -30 56 -31 62 q -27 50 -28 53 q -26 47 -26 49 q -11 41 -22 38 q 17 50 3 45 q 132 73 73 68 q 144 100 159 77 q 108 118 132 121 q 92 135 88 114 q 105 210 100 172 q 109 236 107 223 q 111 243 110 239 q 143 373 119 310 q 150 393 144 376 q 163 433 156 410 q 188 506 176 471 q 203 549 200 541 z "},"J":{"ha":275,"x_min":-77,"x_max":352,"o":"m 222 816 l 222 816 q 239 813 236 817 q 238 795 243 808 q 237 793 237 794 q 205 667 212 732 q 197 609 201 637 q 191 566 194 587 q 169 443 184 503 q 124 320 153 380 q 83 239 105 279 q 30 164 60 199 q -45 109 -1 127 q -60 98 -54 104 q -55 79 -77 83 q 39 98 -4 67 q 111 183 85 132 q 184 334 155 255 q 220 467 210 399 q 225 496 222 482 q 233 553 231 524 q 238 589 235 571 q 243 628 241 608 q 275 752 247 693 q 343 842 298 806 q 350 848 347 845 q 352 857 352 852 q 336 884 350 873 q 305 892 321 895 q 140 848 222 873 q 118 841 130 844 q 28 807 71 829 q 18 802 23 804 q -16 783 1 793 q -26 774 -25 779 q -23 760 -27 770 q -10 736 -18 747 q -5 730 -7 733 q 5 722 1 722 q 16 730 9 722 q 61 762 35 752 q 172 802 116 784 q 184 807 178 804 q 222 816 203 814 z "},"K":{"ha":485,"x_min":-47,"x_max":546,"o":"m 459 121 l 459 121 q 439 123 448 125 q 423 125 431 123 q 351 174 380 141 q 285 272 315 221 q 279 287 281 279 q 274 300 277 294 q 247 355 258 326 q 227 405 237 380 q 211 444 218 425 q 220 477 201 463 q 298 544 260 510 q 322 564 311 554 q 483 718 408 636 q 538 795 515 753 q 540 825 546 810 q 509 861 528 846 q 496 855 498 869 q 482 817 494 835 q 404 722 449 765 q 292 618 350 668 q 280 608 286 613 q 197 532 238 570 q 192 528 195 530 q 169 514 182 519 q 159 521 160 511 q 161 530 160 526 q 161 531 161 530 q 172 569 167 550 q 193 646 182 607 q 201 677 197 661 q 235 829 221 752 q 238 846 237 839 q 241 863 241 857 q 233 876 240 869 q 210 892 227 882 q 205 895 208 894 q 205 895 205 895 q 202 898 203 897 q 181 886 180 910 q 165 770 180 827 q 158 740 162 755 q 145 691 151 715 q 113 567 130 629 q 82 454 96 511 q 60 423 77 434 q 9 391 34 408 q -41 358 -15 373 q -47 352 -47 355 q -43 345 -47 349 q -32 339 -38 341 q 33 342 1 326 q 50 331 53 352 q 41 290 47 310 q 20 130 20 212 q 60 64 16 81 q 62 63 61 63 q 62 62 62 62 q 71 59 66 60 q 80 61 75 58 q 82 80 87 68 q 82 81 82 80 q 75 105 76 92 q 76 135 76 120 q 79 189 75 162 q 81 209 80 199 q 89 250 82 230 q 91 260 90 254 q 109 342 96 302 q 117 373 113 357 q 140 411 124 395 q 163 409 153 427 q 169 395 166 402 q 193 337 179 366 q 214 298 204 317 q 258 220 233 258 q 264 210 261 215 q 296 166 279 187 q 337 131 313 146 q 459 121 393 92 z "},"L":{"ha":449,"x_min":14,"x_max":464,"o":"m 34 33 q 52 45 41 33 q 117 96 79 77 q 156 115 136 106 q 193 132 176 123 q 235 146 214 142 l 266 155 q 333 170 301 167 q 357 174 345 172 q 397 178 377 178 l 410 178 q 437 180 424 178 q 444 179 441 180 l 454 178 q 464 186 464 178 l 464 189 q 426 229 459 222 q 401 231 414 231 q 382 229 392 231 q 127 160 265 217 q 98 150 103 150 q 90 161 90 150 q 92 172 90 168 q 100 191 97 182 l 105 205 q 127 260 117 232 q 144 307 135 284 q 175 388 170 368 q 191 426 181 408 q 202 456 197 440 q 210 479 205 467 q 222 511 217 494 q 236 547 229 530 q 245 570 241 559 q 258 604 250 587 l 265 620 q 290 707 290 685 l 292 718 q 295 745 295 732 l 295 750 q 298 779 295 764 l 298 782 q 266 839 295 818 q 243 848 255 848 q 220 838 232 848 q 171 782 186 813 q 115 672 132 727 q 113 657 113 664 q 142 616 113 629 q 149 614 146 614 q 153 620 153 614 l 153 632 q 154 644 153 638 q 238 797 168 722 q 247 802 243 802 q 258 790 258 802 l 259 772 q 255 734 259 751 q 195 557 243 670 q 171 495 182 526 l 161 470 q 130 397 143 434 q 118 366 124 381 q 106 333 112 350 q 87 285 98 309 q 54 202 73 255 q 30 116 37 160 l 30 115 q 16 84 28 94 q 14 77 14 82 q 23 41 14 60 q 34 33 27 33 z "},"M":{"ha":641,"x_min":15,"x_max":629,"o":"m 590 106 l 585 106 q 536 139 549 113 q 512 252 512 193 q 528 427 512 327 q 553 565 537 496 q 562 612 559 589 q 583 743 583 730 l 583 747 q 576 755 583 755 q 572 752 573 755 q 572 751 572 752 l 541 704 q 514 660 528 678 q 511 652 511 656 q 493 618 504 635 q 476 584 482 602 q 457 548 462 568 q 444 522 452 534 q 439 505 440 515 q 433 492 436 498 q 422 462 427 477 q 410 433 416 447 q 403 413 406 423 q 397 395 400 404 q 393 367 393 381 q 388 340 393 353 q 378 330 385 330 l 374 331 q 341 349 355 338 q 313 427 313 368 l 314 445 q 351 628 326 537 q 370 709 361 669 q 378 741 374 725 q 390 790 390 779 l 391 796 l 391 804 q 385 808 390 808 q 378 800 382 808 q 347 757 361 779 q 337 747 343 751 q 328 734 332 742 q 307 696 319 714 q 294 675 300 686 q 281 656 288 665 q 259 616 269 638 q 235 576 250 594 q 233 566 233 572 q 229 555 233 559 q 205 509 213 534 q 193 480 200 494 q 181 451 186 466 q 165 414 176 431 q 163 404 163 410 q 162 395 163 398 q 147 352 153 374 q 121 257 129 292 l 113 214 q 111 208 111 213 q 113 191 113 199 q 109 165 113 178 q 106 137 106 152 q 104 126 106 127 q 98 125 102 125 q 58 142 80 125 q 45 161 45 146 q 47 168 45 164 l 55 207 q 102 387 77 306 q 111 411 107 398 q 122 449 115 431 q 135 485 130 467 q 157 538 144 511 q 160 551 159 544 q 169 581 165 571 l 212 711 q 231 788 227 748 q 240 820 240 803 q 245 844 241 833 l 245 848 q 235 857 245 857 q 228 853 231 857 q 197 806 208 828 q 182 779 191 791 q 163 745 171 763 q 152 723 159 734 q 137 693 144 708 q 113 650 128 670 q 110 642 111 646 q 94 594 104 617 q 75 536 81 566 q 69 511 73 524 q 60 460 60 475 q 62 437 60 449 q 66 391 62 409 q 57 380 66 381 q 50 382 54 380 q 15 435 15 395 q 27 509 17 471 l 32 531 q 46 577 37 555 l 54 602 q 68 637 60 620 q 81 666 76 651 q 112 733 94 697 q 155 821 134 785 q 168 843 161 831 q 182 868 174 856 l 238 923 q 282 857 279 902 q 267 750 281 802 l 261 722 l 261 718 q 268 715 262 715 q 275 723 271 717 l 276 725 q 361 855 316 791 l 363 857 q 367 863 364 860 q 374 871 370 866 q 381 878 378 878 q 417 869 409 877 l 420 867 q 444 846 440 856 q 446 834 446 841 q 444 813 446 825 q 422 721 431 751 q 408 672 414 692 q 397 633 401 653 l 393 611 q 366 471 366 507 l 366 465 q 368 463 366 464 q 376 467 374 463 l 387 488 q 423 568 403 528 l 444 611 q 516 747 476 681 q 549 800 530 774 q 563 810 558 809 q 580 804 569 810 q 614 778 599 793 q 626 768 619 772 q 629 755 629 764 q 613 647 629 711 l 607 614 l 596 558 q 578 464 588 511 q 566 394 568 417 l 565 382 q 557 279 557 331 q 562 195 557 237 q 591 116 566 153 q 592 115 591 115 q 593 113 593 114 q 594 111 594 111 q 590 106 594 106 z "},"N":{"ha":586,"x_min":28,"x_max":637,"o":"m 406 64 q 431 83 427 64 q 439 98 432 92 q 445 113 444 104 q 466 237 465 226 q 477 288 467 263 q 477 293 477 290 q 476 299 477 296 q 475 306 475 302 q 477 319 475 313 q 478 321 478 320 q 485 352 480 326 q 512 484 497 444 q 521 516 519 500 q 537 583 526 550 q 552 649 547 616 q 567 684 564 665 q 574 709 569 697 q 600 772 588 740 q 619 820 608 796 q 637 871 637 864 q 610 902 637 890 q 603 904 606 904 q 584 877 593 904 q 581 867 583 871 q 544 769 560 819 l 526 715 q 484 572 511 673 l 470 530 q 440 395 462 465 q 439 384 439 391 q 437 360 439 380 l 428 312 q 393 138 403 177 l 391 130 q 385 116 389 122 q 381 110 383 114 q 376 106 380 106 q 368 112 370 106 l 368 113 q 320 277 334 192 q 313 319 313 308 q 308 368 312 343 q 299 518 303 392 l 298 529 l 299 536 q 298 549 299 543 q 296 569 296 559 q 296 580 296 574 q 297 591 297 585 q 295 610 297 600 q 299 660 299 635 q 297 692 299 676 q 295 739 295 715 q 292 770 295 754 l 290 792 q 256 845 288 827 q 224 855 235 855 q 210 846 216 855 q 174 787 191 821 l 157 751 q 112 637 130 696 q 97 589 105 612 q 71 494 82 541 q 35 286 43 375 q 31 269 35 274 q 28 249 28 255 q 35 239 28 243 q 59 226 37 237 q 83 220 72 220 q 96 233 96 220 q 94 243 96 237 q 87 279 87 261 q 91 304 87 292 l 92 313 l 91 330 q 95 362 91 347 q 100 394 100 378 q 105 425 101 410 q 110 448 108 437 q 115 471 112 460 q 123 507 123 498 q 136 551 126 530 q 144 578 140 564 q 157 616 149 597 q 174 669 169 642 q 176 675 174 673 q 207 739 191 698 q 232 779 213 754 l 237 778 q 242 658 241 753 q 250 454 242 556 l 259 321 q 273 259 260 311 q 308 131 283 193 q 404 64 331 74 l 406 64 z "},"O":{"ha":593,"x_min":11,"x_max":567,"o":"m 201 69 q 124 95 157 69 l 123 95 q 111 104 117 100 q 43 173 69 132 q 19 221 23 199 l 17 230 q 11 287 11 259 q 39 448 11 346 q 66 543 54 510 l 78 578 q 113 667 93 624 q 137 728 136 724 q 130 734 137 734 q 126 733 127 734 q 112 722 119 730 q 69 657 94 687 q 44 624 48 631 q 36 616 41 616 q 24 623 27 616 q 21 636 21 630 q 26 653 21 644 q 65 723 50 686 q 70 730 67 727 l 71 732 q 198 864 136 821 q 334 914 267 914 q 428 883 384 914 l 434 879 q 449 865 439 876 q 484 824 473 841 q 494 810 488 817 l 501 800 q 561 646 543 742 q 567 579 567 614 q 557 483 567 534 q 452 254 533 372 q 267 81 351 109 q 201 69 232 69 m 166 111 q 479 397 321 111 q 492 426 487 411 q 503 448 497 437 q 528 522 518 479 q 540 598 540 568 q 536 631 540 614 q 485 769 517 715 q 421 847 452 822 q 374 872 390 872 q 300 857 334 870 l 270 847 q 258 839 265 845 q 252 831 252 836 q 256 825 252 829 q 267 804 267 816 q 259 782 267 792 q 232 760 248 760 q 226 760 229 760 q 222 761 223 761 q 212 751 215 761 q 170 663 176 679 q 147 607 159 634 q 88 450 122 547 q 77 418 79 429 l 56 297 q 53 258 53 277 q 94 140 53 192 q 143 112 113 115 q 166 111 155 111 z "},"P":{"ha":383,"x_min":-47,"x_max":487,"o":"m -5 28 q 1 30 -3 28 q 5 46 5 31 q 18 129 7 89 q 29 182 25 155 q 49 254 36 219 q 65 310 58 281 q 75 316 68 316 q 171 340 125 319 q 208 357 189 345 l 236 375 q 288 412 277 401 q 448 581 388 486 q 486 683 475 629 q 487 705 487 691 q 481 782 487 720 q 473 804 479 793 q 388 892 445 862 q 315 909 353 909 q 236 889 271 909 q 182 854 209 874 q 166 849 174 849 l 155 850 q 145 837 145 850 l 146 829 q 145 823 146 827 q 132 807 144 820 q 55 716 89 766 l 52 711 q -3 570 -3 632 q 12 532 -3 551 q 46 510 29 510 q 53 515 53 510 l 52 520 q 48 550 48 535 q 64 620 48 580 q 82 655 71 639 q 94 676 89 665 q 116 707 104 692 l 126 721 q 113 664 121 692 q 104 625 108 644 q 80 540 94 582 q 63 484 71 512 q 33 391 50 437 q 26 369 29 378 q 21 356 24 359 q 16 353 19 353 q -20 369 9 353 q -26 371 -23 371 q -30 369 -28 371 q -32 365 -32 367 q -27 358 -32 361 q 2 334 -9 340 q 10 321 10 328 q -7 258 10 311 q -30 170 -22 215 q -37 138 -33 154 q -45 94 -42 116 q -47 71 -47 82 q -45 52 -47 63 q -22 32 -43 41 q -5 28 -12 28 m 89 366 q 85 370 85 366 q 102 427 85 384 q 117 476 111 451 q 128 505 121 491 q 140 544 138 524 q 150 583 142 564 q 159 618 156 599 q 178 676 163 656 q 179 681 179 677 q 190 739 179 711 q 201 791 199 764 q 209 808 201 802 q 232 823 212 810 q 241 829 237 825 q 265 842 255 842 q 273 840 269 842 q 316 865 292 861 q 347 867 332 867 q 448 776 448 867 q 414 644 448 696 q 393 606 403 625 q 372 574 384 588 q 354 551 363 564 q 330 525 346 539 q 96 368 201 399 q 89 366 92 366 z "},"Q":{"ha":557,"x_min":33,"x_max":522,"o":"m 193 71 q 247 84 220 71 q 307 136 291 105 q 319 146 311 146 q 328 144 323 146 q 349 136 338 139 q 370 129 360 134 q 404 121 387 122 l 424 118 l 428 118 q 435 125 435 118 q 429 132 435 130 l 426 134 q 399 149 405 144 q 369 163 386 161 q 357 168 363 164 q 355 168 357 168 q 342 179 342 174 q 373 233 342 184 q 450 382 415 298 q 464 414 456 399 q 471 434 468 424 q 481 460 475 448 q 496 508 493 482 q 506 558 499 534 q 517 622 514 590 q 520 652 518 637 q 522 675 522 663 q 519 703 522 689 q 517 724 518 713 q 500 795 514 762 q 391 892 470 869 q 379 894 385 894 q 366 892 372 894 q 245 800 289 867 q 223 770 235 784 q 208 744 213 758 q 196 720 203 731 q 168 669 178 696 q 141 608 156 637 q 98 515 117 563 l 96 510 q 76 452 85 481 l 74 444 q 47 337 58 391 q 43 313 45 325 q 33 235 33 274 l 33 217 q 58 140 33 174 q 157 77 96 92 q 193 71 175 71 m 281 210 l 277 210 q 257 219 267 210 q 189 308 216 259 q 166 420 166 360 l 166 429 l 165 429 l 165 461 q 175 475 166 475 q 187 471 180 475 q 200 467 195 467 q 205 469 202 467 q 212 500 208 471 q 235 601 216 541 q 241 624 241 618 q 241 630 241 626 q 233 640 240 635 q 225 650 225 644 q 228 664 225 656 q 274 739 245 705 l 285 754 q 383 842 323 810 q 420 851 400 851 q 439 847 431 851 q 452 830 446 844 q 471 770 466 802 l 471 766 q 477 688 477 728 q 467 612 475 657 q 425 457 451 520 q 360 323 388 372 l 345 294 q 317 246 331 270 q 302 224 310 236 q 281 210 295 212 m 149 103 q 119 115 128 103 q 88 207 88 154 l 90 227 q 107 336 91 282 q 112 351 111 350 q 116 352 113 352 q 125 341 123 352 q 125 339 125 340 q 248 180 158 240 l 252 176 q 258 170 258 173 q 253 161 257 165 q 182 109 225 125 q 149 103 165 103 z "},"R":{"ha":485,"x_min":-30,"x_max":543,"o":"m 68 58 q 75 65 75 58 l 74 69 l 73 81 q 75 100 73 92 q 88 203 79 152 q 119 358 104 305 q 180 248 145 307 q 271 130 219 180 q 336 91 298 104 q 364 85 350 85 q 387 89 375 85 l 388 90 q 396 97 396 91 q 391 101 396 101 l 387 102 q 370 108 378 106 q 349 117 359 111 q 231 248 277 165 q 170 366 197 305 q 168 373 168 370 q 177 382 168 380 q 338 448 261 407 q 442 519 396 477 q 524 624 495 562 q 543 703 543 663 q 500 827 543 768 q 451 878 478 857 q 338 913 406 913 q 192 867 272 913 q 89 778 132 833 q 47 689 56 739 q 46 672 46 680 q 102 578 47 619 q 113 572 108 572 q 117 574 115 572 q 119 578 119 576 q 113 586 119 582 l 111 588 q 87 642 87 611 q 92 682 87 661 q 175 799 115 754 q 366 876 267 876 q 494 818 454 876 q 518 738 518 784 q 513 694 518 718 q 425 561 493 614 q 406 545 415 553 q 378 521 393 530 l 342 499 q 250 450 298 471 q 189 428 219 439 q 155 416 158 416 q 144 427 147 416 q 141 443 141 438 q 142 452 141 448 q 149 480 147 466 l 154 500 q 171 553 168 540 q 177 578 174 566 q 185 619 182 598 q 189 629 186 624 q 191 640 191 634 q 190 647 191 644 q 192 650 190 650 q 203 676 201 659 l 205 697 q 209 726 205 711 l 210 732 q 195 746 210 743 q 184 750 191 746 q 170 753 177 753 q 157 747 157 753 q 159 740 157 743 q 161 733 161 736 q 135 562 159 645 q 119 509 125 535 q 98 440 104 451 q 92 416 92 425 l 93 406 q 82 394 93 396 q 62 389 72 392 q 18 382 37 382 l 12 382 q 5 373 5 382 l 5 370 q 3 367 5 368 q -12 366 1 366 l -22 366 q -30 362 -29 366 q -28 357 -30 358 q -23 356 -26 356 q -20 355 -21 356 q 15 353 -2 353 q 64 357 40 353 l 69 358 q 76 353 76 358 q 75 345 76 350 q 59 276 64 311 q 51 234 56 255 q 32 132 39 184 l 28 110 l 28 100 q 63 60 28 73 q 68 58 66 58 z "},"S":{"ha":434,"x_min":11,"x_max":673,"o":"m 155 56 q 205 71 178 56 q 263 126 242 91 q 276 176 276 151 q 252 249 276 210 q 248 257 248 254 q 258 265 248 263 l 298 278 q 437 317 367 300 q 490 341 474 325 q 427 326 485 341 q 257 276 341 304 q 245 273 250 273 q 224 287 232 273 q 203 317 214 302 q 100 454 144 388 l 94 464 q 70 537 70 496 q 124 642 70 593 l 138 655 q 229 728 180 696 q 270 755 250 740 q 311 783 290 770 q 483 863 393 831 q 608 886 543 886 q 635 880 629 886 q 637 869 637 877 q 636 857 637 864 q 586 735 624 791 q 487 610 543 667 q 433 566 463 585 l 432 565 q 422 561 425 561 q 416 566 416 561 q 417 571 416 568 q 419 583 418 573 q 423 602 420 593 q 431 634 429 617 q 451 685 435 662 q 453 689 453 687 q 452 692 453 690 q 446 699 452 693 q 414 718 422 718 q 402 700 407 718 q 374 588 385 645 l 374 580 q 391 548 374 560 q 410 534 401 541 q 435 524 421 524 q 451 527 442 524 q 578 642 513 557 l 602 670 q 654 759 635 711 q 673 835 673 804 q 648 895 673 868 q 568 928 618 928 q 498 915 532 928 l 478 909 q 387 874 431 895 q 267 808 317 840 q 243 793 256 800 q 234 783 238 789 q 224 774 231 776 q 170 739 193 762 q 106 687 140 711 q 47 610 73 663 q 38 593 43 601 q 37 590 37 591 q 37 587 37 588 q 29 530 29 552 q 104 391 29 488 l 111 383 q 196 269 148 332 q 201 258 201 262 q 189 251 201 254 l 155 237 l 128 227 q 91 208 109 219 q 34 182 65 189 q 23 176 28 181 l 20 174 q 11 159 11 168 q 18 144 11 153 q 75 90 44 114 q 155 56 117 56 m 130 94 q 79 125 106 94 q 62 156 62 142 q 77 171 62 167 q 134 199 110 188 q 203 224 191 224 q 219 215 212 224 q 231 189 227 205 q 235 167 235 174 q 173 111 231 140 q 130 94 141 94 z "},"T":{"ha":324,"x_min":-161,"x_max":822,"o":"m 174 337 l 174 337 q 174 337 174 337 q 172 338 173 338 q 178 361 176 349 q 195 429 186 395 q 196 432 195 430 q 199 447 198 439 q 218 535 203 492 q 229 575 224 555 q 264 692 243 635 q 276 742 272 717 q 290 793 280 768 q 293 802 291 797 q 300 826 299 813 q 318 846 300 844 q 358 852 338 849 q 419 862 389 858 q 581 881 500 872 q 601 884 591 882 q 688 892 644 889 q 729 897 708 893 q 806 900 766 907 q 818 904 814 899 q 819 918 822 910 q 805 931 814 928 q 788 936 797 935 q 742 937 765 939 q 713 936 727 936 q 623 930 667 936 q 556 924 589 925 q 530 918 543 922 q 507 913 519 915 q 494 913 500 913 q 467 911 480 913 q 398 901 433 903 q 332 892 365 899 q 321 892 325 890 q 321 903 318 895 q 324 915 324 909 q 318 924 323 920 q 286 939 302 933 q 276 939 281 940 q 271 930 272 938 q 267 909 271 920 q 264 894 264 902 q 255 878 262 883 q 238 872 248 873 q 231 872 235 871 q 221 871 226 872 q 95 833 158 852 q 47 819 71 826 q 6 802 26 812 q -14 794 -4 798 q -141 720 -84 768 q -142 720 -141 720 q -152 709 -147 714 q -158 696 -157 703 q -145 656 -161 671 q -105 643 -130 640 q 75 692 -13 659 q 93 698 84 695 q 211 749 154 718 q 213 750 212 749 q 218 753 216 752 q 223 751 220 753 q 225 746 226 749 q 224 741 225 744 q 223 739 224 740 q 215 711 219 725 q 199 652 206 682 q 165 508 181 580 q 152 455 159 481 q 141 389 145 422 q 138 368 140 378 q 119 245 129 307 q 115 225 117 235 q 113 206 114 216 q 98 134 109 170 q 96 130 96 132 q 85 90 88 111 q 87 77 83 80 q 97 71 92 73 q 104 68 101 70 q 133 65 117 59 q 134 67 134 66 q 134 69 134 68 q 138 89 134 79 q 140 102 140 96 q 164 258 151 180 q 166 268 165 262 q 172 315 170 292 q 174 337 173 326 m 232 828 l 232 828 q 234 828 233 828 q 239 828 237 829 q 243 825 241 827 q 242 820 243 822 q 239 817 241 819 q 237 816 238 817 q 137 758 190 783 q 38 722 89 736 q -7 707 15 715 q -65 692 -36 699 q -87 688 -76 690 q -95 687 -91 687 q -100 692 -98 688 q -99 697 -102 695 q -94 701 -97 700 q -94 702 -94 701 q -77 711 -85 707 q 22 763 -30 742 q 177 814 98 793 q 197 820 187 817 q 232 828 214 827 z "},"U":{"ha":528,"x_min":23,"x_max":526,"o":"m 426 694 l 426 694 q 427 682 428 687 q 424 673 426 677 q 421 665 422 669 q 418 654 420 660 q 385 519 404 587 q 355 387 366 454 q 326 211 338 299 q 320 153 321 182 q 327 95 319 124 q 383 29 339 49 q 385 28 384 28 q 390 27 387 27 q 394 29 392 26 q 395 34 396 32 q 391 38 393 36 q 390 39 391 39 q 372 84 372 59 q 374 174 370 130 q 393 289 380 232 q 394 295 394 292 q 403 343 399 319 q 420 425 409 385 q 431 477 426 450 q 453 561 438 520 q 464 602 460 581 q 471 633 466 618 q 476 652 473 642 q 490 703 485 677 q 503 758 495 730 q 515 802 509 779 q 481 874 526 851 q 474 877 477 876 q 469 874 471 877 q 453 855 463 863 q 439 839 445 848 q 425 814 432 827 q 374 731 400 772 q 344 675 357 705 q 320 630 333 652 q 288 565 302 598 q 282 553 285 559 q 262 508 271 530 q 237 454 250 481 q 211 394 223 425 q 174 313 194 353 q 171 307 172 310 q 114 223 149 261 q 91 227 96 207 q 81 319 79 273 q 104 479 85 400 q 108 491 106 485 q 146 618 124 555 q 169 677 157 648 q 177 699 173 688 q 220 812 199 755 q 222 815 221 814 q 232 848 231 838 q 225 866 234 859 q 195 885 217 873 q 186 888 191 888 q 177 887 181 889 q 172 880 173 885 q 149 803 167 840 q 132 757 139 781 q 90 644 115 699 q 79 610 83 627 q 71 579 77 594 q 43 479 51 530 q 35 438 39 458 q 24 342 25 391 q 24 324 24 333 q 29 269 23 296 q 92 189 45 216 q 132 178 111 177 q 170 194 154 180 q 220 272 203 228 q 233 300 226 286 q 251 340 242 319 q 262 364 256 352 q 282 409 272 387 q 306 460 294 435 q 325 503 315 481 q 363 585 343 544 q 372 605 368 595 q 394 650 384 627 q 426 694 404 673 z "},"V":{"ha":406,"x_min":-101,"x_max":588,"o":"m 161 94 q 174 106 173 94 q 203 220 179 165 q 285 423 254 353 q 299 456 292 439 q 513 825 385 656 q 588 947 588 922 q 586 959 588 953 q 571 970 582 970 q 559 964 565 970 q 524 916 543 939 q 450 814 499 888 q 363 680 404 749 q 300 566 320 611 q 267 492 284 529 q 167 245 234 420 l 143 175 l 143 174 q 135 167 140 167 q 131 170 132 168 q 130 177 130 172 q 127 222 130 201 q 113 377 115 299 q 107 467 111 422 q 108 475 107 471 q 99 557 108 500 q 90 626 94 591 q 57 781 82 705 q 31 822 49 804 q -16 842 7 842 q -42 838 -23 842 q -77 798 -61 834 q -92 730 -88 765 q -98 700 -94 715 q -101 652 -101 676 q -95 591 -101 621 l -93 570 q -83 544 -90 557 q -75 524 -78 534 q -19 477 -62 477 q -1 484 -1 477 q -3 491 -1 487 q -28 547 -22 516 q -37 573 -33 560 q -47 642 -47 599 q -40 723 -47 683 q -16 797 -33 762 q -15 799 -16 798 q -13 802 -14 800 q -9 804 -12 804 q -3 796 -5 804 l 7 763 q 47 529 37 663 q 64 317 60 404 q 75 160 68 216 l 78 138 q 96 120 79 120 l 104 120 q 129 111 117 120 q 161 94 146 94 z "},"W":{"ha":563,"x_min":-109,"x_max":780,"o":"m 766 876 l 766 876 q 766 854 780 865 q 753 844 759 849 q 716 811 734 828 q 629 706 667 764 q 616 686 622 696 q 573 621 595 653 q 524 530 545 578 q 518 517 522 524 q 496 456 503 488 q 486 428 492 441 q 476 405 480 416 q 465 364 471 385 q 444 284 453 325 q 433 243 440 263 q 421 197 426 220 q 418 182 420 190 q 414 139 414 161 q 402 127 414 125 q 398 127 400 127 q 375 135 385 130 q 358 153 364 140 q 353 159 357 157 q 345 161 349 161 q 336 165 340 162 q 309 195 318 176 q 288 277 291 234 q 284 375 282 326 q 294 494 287 435 q 297 517 296 505 q 299 533 298 525 q 307 594 302 564 q 313 616 309 605 q 315 627 314 622 q 307 624 310 627 q 302 617 304 621 q 298 611 301 614 q 225 519 256 568 q 203 479 213 500 q 196 465 199 472 q 189 448 192 456 q 172 416 184 430 q 167 410 169 414 q 164 404 165 407 q 156 384 162 393 q 150 371 153 378 q 135 325 142 348 q 121 281 127 302 q 111 246 115 264 q 97 198 106 222 q 90 157 90 179 q 87 137 89 146 q 87 136 87 136 q 86 124 86 130 q 90 113 86 119 q 89 103 92 106 q 79 100 85 100 q 55 117 68 99 q 32 162 43 136 q 14 210 21 188 q 5 238 7 232 q 8 296 2 268 q 12 327 11 312 q 13 332 13 330 q 12 351 15 342 q 11 355 12 353 q 12 359 11 358 q 20 395 20 376 q 23 418 20 407 q 31 463 26 429 q 42 537 37 497 q 50 606 47 576 q 52 637 53 635 q 52 656 50 640 q 58 691 54 671 q 64 724 61 711 q 65 730 64 725 q 65 740 65 734 q 64 750 65 746 q 62 756 64 755 q 60 756 61 757 q 58 755 59 756 q 55 754 56 754 q 29 734 43 749 q 5 706 15 719 q -3 696 -1 698 q -21 665 -7 692 q -46 604 -35 638 q -56 543 -58 570 q -53 529 -56 537 q -49 513 -51 520 q -45 505 -47 506 q -37 496 -39 503 q -37 486 -36 490 q -43 479 -38 481 q -52 479 -47 478 q -92 500 -74 486 q -99 510 -94 502 q -105 565 -109 522 q -62 696 -102 608 q -56 708 -58 702 q -56 708 -56 708 q -50 720 -53 714 q -16 768 -31 743 q -9 779 -13 773 q -8 781 -8 780 q -5 784 -7 783 q -1 786 -4 785 q 31 803 18 789 q 53 805 41 812 q 70 800 61 802 q 83 795 77 798 q 94 787 90 793 q 100 781 97 785 q 109 770 105 777 q 113 755 113 764 q 113 661 114 708 q 107 600 111 630 q 102 562 104 581 q 100 540 102 553 q 98 519 98 528 q 98 508 97 509 q 98 490 100 503 q 94 463 97 476 q 90 444 92 449 q 81 400 83 423 q 81 393 81 397 q 80 390 80 391 q 79 380 79 385 q 69 324 74 352 q 68 313 68 319 q 68 310 67 312 q 73 308 69 309 q 80 336 74 323 q 87 372 89 353 q 90 382 87 377 q 97 393 93 388 q 117 432 111 411 q 131 462 123 448 q 146 488 139 475 q 166 524 155 507 q 183 550 175 536 q 214 594 195 574 q 249 635 232 614 q 277 669 262 653 q 294 682 284 677 q 311 698 304 689 q 351 720 326 718 q 355 720 353 720 q 375 720 366 722 q 385 713 381 718 q 385 702 388 709 q 373 647 374 675 q 368 612 372 629 q 366 605 367 608 q 354 534 357 570 q 353 526 354 530 q 354 503 351 514 q 353 488 357 496 q 347 425 344 457 q 344 401 347 413 q 341 386 342 394 q 342 271 335 328 q 347 225 346 248 q 357 194 349 210 q 361 184 359 189 q 372 208 370 196 q 390 277 378 243 q 395 294 393 286 q 408 345 402 319 q 420 389 414 367 q 429 414 424 401 q 439 441 435 427 q 452 477 444 459 q 466 517 460 496 q 481 552 471 535 q 488 563 485 557 q 500 589 494 576 q 523 633 509 612 q 560 694 543 663 q 618 773 586 737 q 631 789 625 781 q 699 853 660 826 q 711 864 705 858 q 730 878 720 872 q 748 883 739 883 q 766 876 757 884 z "},"X":{"ha":593,"x_min":-50,"x_max":659,"o":"m -3 52 q 7 64 7 52 q 16 112 9 90 q 28 157 24 134 q 41 197 32 179 l 50 215 q 76 263 60 241 l 87 278 l 108 310 q 137 354 123 332 q 179 408 155 383 l 203 435 q 216 446 210 446 q 260 352 224 446 q 271 328 264 339 q 286 290 280 310 q 307 243 292 264 q 311 235 311 239 q 331 194 317 212 l 338 181 q 430 86 371 121 q 477 74 453 74 q 509 79 493 74 q 516 86 516 81 q 509 94 515 92 q 483 113 494 100 q 472 120 477 119 q 441 134 454 123 q 419 158 429 144 l 415 163 q 355 268 377 212 l 346 288 q 319 367 326 326 l 315 374 q 286 441 297 406 q 265 492 277 467 q 263 503 263 498 q 271 519 263 511 l 292 543 q 337 592 314 568 l 355 610 q 394 646 372 630 q 435 682 415 663 q 570 793 497 743 l 575 797 q 635 821 610 821 q 649 819 642 821 l 652 819 q 659 827 659 819 q 656 833 659 830 q 651 841 654 837 q 642 853 647 848 q 606 876 622 876 q 578 868 595 876 q 471 789 528 842 l 389 715 q 281 610 328 660 q 240 574 249 574 q 227 587 233 574 l 214 618 q 187 686 203 652 q 147 778 166 731 q 134 813 141 796 l 133 813 q 125 824 132 822 q 75 835 101 835 q 52 830 57 835 q 47 817 47 826 q 36 642 37 730 q 45 586 36 596 q 94 576 55 576 l 98 576 q 108 585 108 578 l 106 589 q 99 636 99 612 l 100 650 q 98 682 100 667 l 98 691 q 100 706 98 703 q 106 709 102 709 q 113 703 111 709 q 138 648 127 677 q 161 595 149 618 q 187 528 176 563 q 189 519 189 524 q 182 500 189 509 l 130 439 q -42 152 0 275 q -50 115 -50 132 q -38 80 -50 100 q -3 52 -20 52 z "},"Y":{"ha":411,"x_min":-28,"x_max":438,"o":"m 99 -81 q 164 -54 127 -81 q 167 -53 165 -53 q 229 26 200 -29 q 287 205 269 112 q 313 324 300 264 l 328 398 q 400 642 353 524 l 437 725 q 438 732 438 728 q 435 740 438 736 q 408 769 412 766 q 403 770 405 770 q 401 769 402 770 q 388 755 399 762 q 322 622 370 747 q 202 369 268 484 l 184 336 q 139 256 170 307 q 98 206 124 227 q 90 202 93 202 q 85 210 87 202 q 73 312 73 275 q 141 553 73 397 q 230 783 180 640 q 233 799 233 791 q 203 840 233 829 l 195 842 q 189 838 191 842 q 166 806 180 820 q 92 730 122 755 q 5 651 47 692 q -11 636 -3 644 q -18 620 -18 629 q -12 606 -18 613 q 9 593 -3 593 q 35 607 21 593 q 81 646 56 629 q 130 689 108 665 q 135 692 132 692 q 140 689 140 692 q 140 686 140 687 q 139 684 140 684 q 136 675 138 679 l 136 675 l 115 626 q 71 520 93 574 q 28 332 28 410 q 43 231 28 276 q 82 177 54 201 q 117 160 102 160 q 127 160 119 160 q 153 183 136 161 q 219 294 191 235 q 243 337 230 315 q 269 385 269 380 q 275 393 271 393 l 277 393 q 281 388 281 391 l 264 304 q 250 244 255 260 q 241 213 245 229 q 179 43 222 123 q 65 -48 118 -48 q 44 -46 62 -48 q 5 -12 25 -45 q -7 2 -1 -5 q -17 14 -13 8 q -22 18 -19 18 q -28 11 -28 18 q -21 -9 -28 3 q 24 -52 -3 -36 q 99 -81 64 -79 z "},"Z":{"ha":449,"x_min":-138,"x_max":549,"o":"m -65 72 q -64 74 -64 73 q -63 76 -63 75 q -58 87 -63 83 q -32 102 -52 94 l -21 107 q 128 148 49 138 q 153 153 140 150 q 180 157 165 156 q 187 158 183 157 q 195 159 191 159 l 205 158 l 208 157 q 214 159 211 157 q 233 165 221 165 l 239 164 q 273 165 256 164 l 295 165 q 317 165 307 165 q 336 164 327 164 l 359 165 q 400 158 380 165 l 405 157 q 415 176 415 157 l 414 193 q 393 215 412 213 q 315 219 354 219 l 286 218 l 246 216 q 103 202 170 215 q 26 184 63 198 q -5 177 14 178 l -1 181 q 19 203 8 193 q 47 235 35 218 q 76 279 60 258 q 100 313 92 298 q 119 340 107 328 q 133 359 127 349 q 177 422 163 404 q 195 450 187 435 q 204 465 199 458 q 238 525 224 490 q 241 534 240 529 q 246 548 242 541 l 269 581 q 338 675 294 617 q 386 728 359 704 q 392 734 390 730 q 465 798 421 775 q 532 842 500 817 q 549 880 549 857 q 538 912 549 898 q 532 916 535 916 l 529 916 q 500 901 507 907 q 428 839 467 876 q 325 779 397 812 l 285 760 q 236 736 260 747 q 196 718 216 728 q 102 680 150 696 q 14 661 57 661 l 5 661 q -1 655 -1 661 q 4 637 -1 648 q 8 623 7 631 q 26 609 12 610 l 42 608 q 75 612 62 608 q 92 625 85 614 q 99 628 96 628 q 125 637 112 632 l 137 642 q 255 694 198 666 q 306 717 282 705 q 308 718 307 718 q 311 719 309 719 q 315 717 313 719 q 248 624 285 677 q 210 568 230 596 q 144 471 176 520 q 16 281 49 323 l -11 246 q -50 197 -29 221 l -77 161 q -99 132 -90 147 q -135 81 -114 104 q -138 75 -138 78 l -137 72 l -93 72 q -81 77 -84 77 q -71 72 -79 77 l -65 72 z "},"[":{"ha":302,"x_min":16,"x_max":361,"o":"m 61 125 q 69 127 65 125 q 115 140 92 134 q 216 178 170 149 l 246 195 q 255 210 255 199 q 250 223 255 220 q 231 226 244 226 q 198 220 214 226 q 82 186 142 194 l 77 186 q 64 199 64 186 q 71 233 64 212 q 79 268 77 251 q 86 302 81 286 l 99 341 q 130 422 111 383 q 142 468 139 444 q 151 500 145 484 q 197 745 195 618 q 205 766 197 753 l 206 766 q 237 781 215 779 q 275 791 245 781 q 339 807 306 804 q 361 821 361 807 q 354 837 361 827 l 351 841 q 320 854 342 854 q 275 844 296 854 q 191 817 235 822 q 163 789 163 815 l 163 768 q 153 675 163 720 q 93 475 139 625 q 36 275 47 342 q 25 231 33 252 q 16 193 16 211 q 40 136 16 162 q 61 125 50 125 z "},"\\":{"ha":186,"x_min":11,"x_max":205,"o":"m 189 160 q 205 177 205 160 l 205 179 q 204 182 204 180 q 202 187 203 184 q 182 254 189 220 q 174 292 179 273 q 158 357 165 324 q 146 412 153 385 q 125 525 132 467 q 109 603 119 565 l 100 644 q 77 755 86 718 q 67 800 71 777 q 58 844 64 822 l 58 846 q 54 856 57 851 q 38 861 52 861 q 11 835 11 861 q 24 789 11 817 q 35 758 31 774 q 49 698 41 728 q 77 551 60 656 q 106 400 97 437 q 112 372 110 387 q 119 337 115 355 q 146 237 136 288 q 177 168 154 199 q 189 160 182 160 z "},"]":{"ha":254,"x_min":6,"x_max":252,"o":"m 201 98 q 188 102 194 98 q 145 121 167 113 q 52 177 91 143 l 24 199 q 18 212 18 203 q 32 228 18 228 q 75 214 54 228 q 184 161 126 180 q 193 160 189 160 q 205 177 205 160 q 202 204 205 185 q 200 242 200 224 l 201 252 q 191 316 201 260 q 174 401 186 359 q 168 446 168 423 q 165 479 168 463 q 149 626 149 553 q 157 726 149 675 l 157 730 q 151 748 157 736 l 151 748 q 122 768 144 762 q 86 785 109 771 q 26 811 58 803 q 13 816 19 812 q 6 827 6 819 q 16 843 6 834 q 19 846 18 844 q 38 855 27 855 q 95 836 66 855 q 174 795 131 808 q 197 769 197 789 q 195 757 197 763 q 188 685 188 721 q 190 649 188 667 q 218 445 204 518 q 242 263 234 354 q 243 239 243 251 l 243 234 q 248 195 243 214 q 252 168 252 180 q 218 106 252 131 q 201 98 210 98 z "},"^":{"ha":219,"x_min":3,"x_max":168,"o":"m 164 930 q 168 935 168 930 q 165 940 168 937 q 144 988 151 959 q 138 1005 140 996 q 123 1046 131 1029 q 111 1080 115 1063 q 94 1097 109 1097 q 87 1097 91 1097 q 78 1097 83 1097 q 68 1088 73 1096 q 23 996 40 1043 l 15 975 q 5 956 12 960 q 3 952 3 954 q 7 947 3 947 q 17 944 12 946 q 28 942 22 942 q 37 948 34 942 q 81 1055 66 1029 l 84 1059 q 87 1061 85 1061 q 98 1038 90 1061 q 111 1004 107 1016 q 125 969 118 982 l 133 951 q 164 930 139 930 z "},"_":{"ha":323,"x_min":7,"x_max":323,"o":"m 303 20 q 319 28 314 20 q 323 43 323 36 q 318 60 323 52 q 304 68 313 68 q 294 67 299 68 q 283 66 288 66 q 261 74 269 66 q 240 81 253 81 l 231 81 q 130 73 175 73 l 101 73 q 81 73 92 73 q 33 71 58 72 q 7 63 7 70 q 18 45 7 58 q 59 23 37 23 l 65 23 q 202 31 157 31 q 293 21 248 31 l 303 20 z "},"`":{"ha":126,"x_min":9,"x_max":130,"o":"m 103 923 q 118 926 110 923 q 130 935 130 930 q 124 945 130 939 q 90 996 102 968 q 21 1044 71 1044 q 10 1038 14 1044 q 9 1034 9 1036 q 12 1027 9 1031 l 14 1025 q 71 943 31 996 q 103 923 83 923 z "},"a":{"ha":231,"x_min":-24,"x_max":284,"o":"m 32 233 q 36 236 34 233 q 75 290 54 256 q 82 300 78 296 q 94 321 90 309 q 100 326 95 326 q 106 321 104 326 q 106 319 106 320 q 146 272 119 290 q 154 269 151 269 q 157 270 155 269 q 169 279 162 275 q 182 289 176 283 q 200 309 190 300 q 219 332 214 323 q 232 349 224 341 q 264 394 253 368 q 269 405 266 400 q 277 422 277 414 l 276 428 q 277 431 276 429 q 283 446 283 444 l 284 454 q 277 460 283 460 q 271 452 275 460 q 150 309 218 373 q 143 303 144 303 q 138 307 138 303 l 137 313 l 137 321 l 137 353 q 160 425 137 393 q 170 448 170 439 q 169 455 170 450 q 152 469 168 460 q 142 473 147 473 q 134 467 138 473 q 127 461 130 461 q 121 466 124 461 q 104 481 113 475 q 79 493 89 493 q 50 475 64 493 q 46 471 48 473 q 17 427 30 450 l 3 403 q -24 325 -24 362 q -18 291 -24 306 q 7 255 -12 276 q 27 235 15 243 q 32 233 30 233 m 18 277 l 16 277 q 13 283 13 279 l 14 288 q 13 290 14 289 q 35 370 13 333 q 68 426 49 401 l 85 450 q 96 459 90 459 q 102 457 98 459 q 114 441 114 450 q 112 433 114 437 q 100 399 104 417 q 95 390 99 394 q 92 385 93 388 q 24 286 74 357 q 21 279 22 281 q 18 277 19 277 z "},"b":{"ha":255,"x_min":21,"x_max":319,"o":"m 24 266 l 24 266 q 31 260 28 263 q 50 250 40 254 q 71 247 59 245 q 107 256 90 250 q 125 262 116 260 q 227 322 183 280 q 235 333 233 327 q 243 343 239 340 q 259 358 253 350 q 266 365 262 361 q 311 446 297 401 q 318 464 314 455 q 318 469 319 467 q 315 472 318 471 q 312 471 313 473 q 309 468 311 470 q 309 467 309 468 q 288 436 300 450 q 279 426 283 431 q 184 331 237 373 q 183 330 183 330 q 179 328 181 329 q 174 328 176 326 q 172 333 171 330 q 174 338 172 336 q 202 426 198 379 q 193 494 205 460 q 177 515 187 507 q 165 519 170 520 q 156 513 161 517 q 151 509 154 511 q 107 467 126 490 q 98 456 102 461 q 96 454 97 455 q 94 450 95 452 q 90 450 93 449 q 87 454 87 452 q 87 460 87 457 q 88 461 87 460 q 98 497 92 479 q 109 536 106 516 q 123 595 113 566 q 133 636 129 616 q 140 667 136 652 q 144 679 142 673 q 147 693 146 686 q 165 766 157 730 q 157 795 170 785 q 142 804 151 800 q 138 807 140 806 q 125 800 125 814 q 117 758 124 778 q 116 753 117 755 q 83 614 96 684 q 41 458 66 535 q 23 396 32 427 q 22 394 22 395 q 21 389 21 391 q 23 341 26 365 q 23 338 23 339 q 25 330 22 333 q 62 288 37 303 q 68 284 66 287 q 70 277 71 281 q 66 272 69 274 q 59 270 62 271 q 58 270 59 270 q 38 267 49 267 q 24 266 31 267 m 161 488 l 161 488 q 163 452 168 470 q 117 329 151 386 q 96 302 108 315 q 94 300 95 301 q 78 296 87 294 q 57 306 68 298 q 50 315 50 310 q 53 327 50 321 q 54 330 53 329 q 85 389 66 362 q 119 435 102 412 q 130 448 125 441 q 142 460 135 455 q 161 488 155 471 z "},"c":{"ha":180,"x_min":10,"x_max":228,"o":"m 73 247 q 115 267 94 247 q 158 306 137 286 l 177 323 q 187 332 182 327 q 219 383 191 338 q 224 397 223 389 l 228 409 q 224 416 228 414 q 219 412 220 416 l 218 410 q 211 399 215 404 q 204 389 207 394 q 163 344 186 363 l 155 336 q 86 277 103 287 q 72 274 78 274 q 60 279 66 274 q 49 316 49 290 q 51 340 49 325 q 64 401 56 382 q 71 417 68 409 q 96 456 78 446 q 129 469 116 469 q 150 463 138 469 q 154 462 151 462 q 157 465 157 462 q 155 469 157 467 q 104 494 130 494 q 57 474 81 494 q 31 431 38 456 q 25 417 28 424 q 10 340 10 385 q 28 281 10 303 q 73 247 56 247 z "},"d":{"ha":234,"x_min":-20,"x_max":274,"o":"m -20 328 l -20 328 q -6 296 -20 311 q 7 282 0 288 q 29 257 20 272 q 54 238 37 243 q 62 237 59 237 q 67 245 66 238 q 75 269 68 258 q 104 332 92 299 q 104 333 104 332 q 106 336 105 334 q 109 337 107 338 q 112 336 111 337 q 113 332 112 334 q 113 330 113 332 q 130 297 119 313 q 142 284 135 290 q 156 267 151 277 q 171 255 161 256 q 189 262 180 254 q 224 302 210 279 q 235 317 229 309 q 256 357 248 336 q 273 392 263 375 q 274 394 274 393 q 274 397 274 395 q 274 398 274 397 q 269 406 274 404 q 266 406 267 407 q 264 404 265 406 q 263 402 264 403 q 237 372 249 388 q 225 357 231 365 q 211 340 218 349 q 176 300 195 319 q 166 295 170 294 q 160 304 163 296 q 157 328 157 316 q 157 339 157 334 q 159 395 153 368 q 164 419 163 407 q 171 450 165 435 q 186 495 176 464 q 206 557 197 527 q 218 594 214 583 q 227 616 222 605 q 236 643 232 629 q 247 686 242 661 q 268 759 255 727 q 272 769 270 762 q 274 783 273 777 q 272 792 274 790 q 263 794 268 795 q 255 792 259 794 q 247 790 251 791 q 239 790 243 789 q 227 784 229 793 q 210 733 219 758 q 195 691 202 713 q 159 582 182 650 q 121 467 134 511 q 117 460 119 461 q 111 463 115 459 q 49 486 83 481 q 41 485 44 486 q 35 479 38 484 q 3 410 16 446 q -5 390 -1 400 q -20 328 -18 361 m 26 300 l 26 300 q 31 322 26 311 q 36 345 35 333 q 43 364 37 356 q 49 376 47 370 q 67 418 57 397 q 75 434 71 426 q 104 448 83 455 q 112 445 110 447 q 112 436 113 442 q 90 382 104 408 q 78 359 83 371 q 45 293 62 326 q 41 283 43 288 q 40 281 41 282 q 39 277 40 279 q 35 276 37 276 q 30 279 31 277 q 28 286 28 282 q 26 296 27 290 q 26 300 26 298 z "},"e":{"ha":206,"x_min":12,"x_max":269,"o":"m 100 241 q 166 271 129 242 q 195 300 178 277 q 205 312 200 307 q 246 371 229 340 l 246 370 q 254 393 247 370 q 269 441 269 431 q 267 450 269 446 q 256 458 263 458 q 247 449 250 458 l 245 447 q 224 399 229 410 q 150 307 204 358 q 102 273 129 286 q 83 269 91 269 q 57 300 60 269 q 65 337 57 319 q 68 347 67 342 q 74 352 70 352 l 78 351 l 82 351 q 126 366 106 351 q 138 374 132 370 q 168 401 157 384 q 178 424 178 414 q 121 480 178 460 q 104 484 113 484 q 71 465 85 484 q 12 324 16 410 l 12 320 q 30 290 12 304 l 41 281 q 68 256 56 271 q 100 241 80 241 m 84 380 l 83 380 q 80 386 80 380 l 92 403 q 128 445 106 427 q 140 450 134 449 q 146 446 146 450 q 89 382 138 409 q 87 381 88 382 q 84 380 86 380 z "},"f":{"ha":162,"x_min":-37,"x_max":240,"o":"m -37 140 l -37 140 q -37 134 -37 136 q -37 120 -37 127 q 2 58 -35 79 q 18 64 14 52 q 22 77 20 71 q 40 125 31 101 q 47 142 43 134 q 85 258 72 199 q 92 292 89 275 q 106 369 100 330 q 109 385 107 377 q 113 429 113 407 q 130 444 112 446 q 229 456 180 437 q 235 469 240 459 q 204 486 225 488 q 192 485 198 486 q 110 484 151 481 q 100 488 105 485 q 92 496 95 492 q 90 504 89 501 q 97 531 92 511 q 106 572 101 551 q 111 596 109 586 q 114 610 113 607 q 136 682 125 646 q 176 743 149 718 q 180 747 178 746 q 192 763 193 758 q 176 780 192 768 q 176 781 176 781 q 174 781 175 781 q 158 788 168 787 q 142 783 149 788 q 114 753 124 770 q 97 716 104 735 q 95 711 96 713 q 86 680 90 696 q 80 659 83 669 q 57 571 71 627 q 33 476 43 516 q 30 462 31 468 q 19 416 24 439 q 5 357 12 387 q -5 317 0 337 q -24 245 -16 281 q -37 140 -35 193 m 1 134 l 1 134 q 2 142 2 138 q 16 222 4 183 q 22 248 20 235 q 26 268 24 258 q 34 296 30 282 q 43 328 39 312 q 52 363 47 346 q 71 437 60 401 q 71 443 71 440 q 71 444 71 444 q 73 451 71 448 q 81 453 75 454 q 89 442 90 452 q 86 415 87 429 q 84 399 85 408 q 52 244 75 321 q 16 146 37 193 q 11 135 13 140 q 9 130 10 132 q 9 127 9 129 q 7 124 8 125 q 4 122 6 122 q 1 124 1 123 q 1 128 1 126 q 1 130 1 130 q 1 133 1 132 q 1 134 1 134 z "},"g":{"ha":210,"x_min":-41,"x_max":275,"o":"m -26 -96 q -19 -95 -22 -96 q -12 -94 -16 -94 q 0 -95 -5 -95 q 14 -93 6 -95 q 55 -57 40 -84 q 69 -37 61 -46 q 71 -31 71 -35 q 81 1 78 -13 l 85 14 q 93 87 93 41 q 104 120 93 104 q 196 241 123 151 q 275 349 275 338 q 274 351 275 350 q 212 292 241 323 q 189 268 201 280 q 165 240 177 255 q 159 232 162 236 q 144 213 155 229 q 126 187 136 201 q 109 164 116 174 q 100 155 102 155 q 97 157 98 155 l 97 161 q 100 180 100 171 q 102 199 100 190 q 113 260 109 229 q 127 328 119 294 l 132 343 q 173 436 143 394 q 176 442 176 439 q 173 448 175 445 q 151 464 162 464 q 129 449 140 464 q 129 448 129 448 q 127 447 128 448 q 123 444 125 444 q 118 448 120 444 q 79 481 104 471 q 71 482 75 482 q 61 479 66 482 q 31 443 43 463 q -35 288 -14 370 q -41 248 -41 264 q -41 235 -41 246 q -19 210 -40 224 l -9 203 q 17 191 3 191 q 40 213 32 191 q 71 253 48 236 q 70 231 71 243 q 57 113 57 166 q 51 81 57 94 q 20 28 35 55 q -7 -19 7 4 q -37 -76 -28 -49 l -38 -81 q -33 -91 -38 -85 l -33 -92 q -26 -96 -29 -96 m 1 215 l -1 215 q -5 221 -5 217 l -5 224 l -5 231 q 5 273 -3 252 q 15 308 12 283 l 16 309 q 17 313 16 312 q 30 340 26 325 l 33 351 q 80 435 52 395 q 92 444 85 444 q 106 437 99 444 q 113 425 113 430 q 111 413 113 419 q 111 410 111 412 q 48 285 90 341 l 45 281 q 9 230 26 256 q 7 226 9 228 q 4 219 5 224 q 1 215 3 215 m -7 -68 q 40 19 12 -22 q -7 -68 31 -33 z "},"h":{"ha":197,"x_min":-43,"x_max":225,"o":"m -22 239 q -19 242 -20 239 q -11 262 -17 252 q -4 277 -7 269 q 37 357 7 315 q 56 385 47 370 q 121 454 81 427 q 124 456 123 455 q 127 458 125 458 q 131 454 131 458 q 119 411 131 441 q 112 391 115 401 q 92 305 92 326 q 132 252 92 261 l 138 252 q 155 258 148 252 q 224 364 211 308 q 225 370 225 367 q 222 373 225 373 q 218 370 220 373 l 217 368 q 158 295 184 322 q 130 273 146 279 q 125 271 127 271 q 121 277 121 271 q 128 309 121 290 l 133 326 q 152 390 140 359 q 157 410 155 399 q 163 432 159 421 q 166 445 166 439 q 150 473 166 460 q 132 487 139 487 q 128 484 130 487 q 116 473 123 477 q 45 412 73 450 l 44 410 q 38 404 40 404 q 33 408 33 404 q 35 412 33 409 l 39 418 q 44 437 39 422 q 62 488 52 467 q 73 520 71 503 q 83 545 75 534 q 101 601 89 557 q 120 660 114 652 q 124 672 123 666 q 140 728 127 702 q 144 747 144 739 q 120 782 144 770 q 109 787 114 787 q 104 782 104 787 l 104 780 q 103 773 104 774 l 103 771 q 102 770 102 771 q 58 626 71 662 q 43 581 50 604 l 30 534 q 12 483 22 508 q -14 412 3 463 q -25 375 -19 393 q -35 336 -32 356 q -41 315 -38 326 q -43 292 -43 304 q -31 245 -43 268 q -22 239 -28 239 z "},"i":{"ha":125,"x_min":13,"x_max":180,"o":"m 85 242 q 116 264 106 247 q 131 292 123 279 q 141 308 136 299 q 168 352 154 330 q 180 383 180 372 q 176 391 180 388 l 175 392 q 171 389 173 392 q 103 292 144 345 q 79 268 94 277 q 72 267 75 267 q 68 273 69 267 q 66 287 66 280 q 62 326 62 306 q 63 348 62 337 q 66 370 64 359 q 86 460 68 399 l 87 466 q 81 476 87 473 q 43 494 61 493 q 40 491 41 494 q 16 393 21 416 q 13 356 13 374 q 19 307 13 331 q 27 279 20 286 q 85 242 70 242 m 104 525 q 109 528 109 525 q 114 547 109 538 q 118 562 118 556 q 96 581 118 570 q 81 586 84 586 q 75 577 76 586 q 79 560 75 568 q 83 549 83 552 q 81 543 83 546 q 87 536 82 540 q 97 528 92 532 q 104 525 102 525 z "},"j":{"ha":145,"x_min":-162,"x_max":186,"o":"m -149 -76 l -148 -75 q -136 -70 -142 -70 q -127 -71 -131 -70 q -119 -73 -123 -73 q -113 -74 -116 -74 q -82 -53 -92 -74 l -77 -39 q -62 -7 -71 -22 q -36 52 -54 8 q 1 149 -9 121 q 56 244 16 202 q 115 308 82 272 q 186 399 186 387 l 186 400 q 158 376 173 387 q 121 340 138 359 q 81 296 102 317 q 44 258 62 277 q 42 257 43 257 q 39 259 39 257 q 46 280 39 264 q 54 305 51 293 q 67 351 60 328 q 83 410 83 396 q 73 429 83 422 q 44 439 54 439 q 34 426 35 439 q 30 401 33 414 l 28 393 q -24 202 7 296 q -106 54 -54 123 q -162 -55 -162 -26 q -159 -66 -162 -60 q -149 -76 -155 -76 m -139 -53 q -146 -45 -146 -53 q -137 -26 -145 -39 q -119 -1 -130 -14 q -100 15 -109 11 l -109 -5 q -132 -48 -118 -29 l -133 -49 q -139 -53 -136 -53 m 73 462 q 79 467 75 462 l 81 469 q 109 522 99 494 q 115 545 115 539 q 90 569 115 567 q 78 562 80 569 l 71 536 q 58 477 58 496 q 61 469 58 471 q 73 462 68 462 z "},"k":{"ha":197,"x_min":-33,"x_max":228,"o":"m 100 229 q 171 271 140 229 q 198 306 186 289 q 215 328 206 317 q 228 365 227 346 l 225 366 q 220 362 223 366 q 150 282 186 322 q 112 250 134 262 q 96 245 105 245 q 89 255 94 246 q 66 318 76 277 q 67 324 66 322 q 71 328 68 326 q 93 341 81 336 q 115 357 104 347 q 128 369 121 363 q 172 455 168 400 q 173 465 172 459 q 174 478 174 471 q 170 491 174 486 q 166 500 166 497 q 172 507 166 504 q 176 512 176 509 q 170 519 176 519 q 142 509 146 513 q 126 492 135 499 q 114 480 120 487 q 102 468 109 474 q 75 434 87 452 q 68 429 71 429 q 64 434 64 429 q 93 528 74 458 q 110 585 102 556 q 126 643 117 614 q 153 747 148 721 q 158 778 155 762 q 159 786 159 782 q 157 793 159 790 q 115 820 136 816 q 111 814 111 820 q 100 737 111 770 q 72 635 87 686 q 34 501 54 577 q 18 450 20 460 q 5 405 14 427 q -3 373 1 389 q -31 292 -7 359 q -33 279 -33 286 q -33 267 -33 270 q -5 241 -28 254 q -1 243 -1 241 q 3 250 -1 245 q 7 256 7 254 q 18 283 10 271 q 28 314 26 298 q 35 321 28 321 q 41 315 40 321 q 58 276 47 294 q 69 254 64 265 q 100 229 81 229 m 54 363 q 52 366 52 364 q 54 371 52 370 q 79 406 67 388 q 121 460 97 435 q 130 469 125 463 q 134 474 131 474 q 138 471 138 474 l 136 465 q 98 399 130 425 q 87 389 92 394 q 62 368 76 377 q 54 363 57 363 z "},"l":{"ha":152,"x_min":-18,"x_max":260,"o":"m 39 239 q 45 241 41 239 l 46 241 q 71 254 60 248 q 134 302 99 269 q 176 337 153 320 q 193 365 184 345 l 193 366 q 195 369 195 368 q 191 374 195 374 q 186 370 189 374 l 125 326 q 59 286 69 286 l 57 286 l 52 298 q 43 321 45 313 q 40 338 40 329 l 41 355 q 68 500 47 429 q 79 534 73 519 q 132 608 89 561 q 173 659 154 632 l 196 690 q 249 776 228 730 q 253 785 250 780 q 260 806 260 800 q 257 819 260 812 q 210 849 241 849 q 168 830 187 849 q 112 745 133 791 q 41 568 68 659 q -18 524 29 525 q 13 497 -3 507 q 20 486 20 492 l 20 479 q 9 370 9 424 q 20 277 9 323 q 33 243 24 254 q 39 239 36 239 m 113 642 q 109 644 109 642 q 110 648 109 646 q 111 650 111 649 q 132 695 127 688 q 145 720 139 707 q 167 758 153 740 q 179 775 174 766 q 224 814 196 805 l 225 814 q 229 815 227 815 q 234 810 234 815 q 202 751 234 806 q 175 715 191 733 q 147 676 160 698 q 137 664 143 669 q 126 650 131 658 q 123 646 125 648 l 113 642 z "},"m":{"ha":283,"x_min":-28,"x_max":306,"o":"m 240 235 q 273 289 246 237 q 306 351 306 346 q 300 358 306 358 q 295 355 297 358 q 286 343 295 354 q 252 302 270 326 q 221 266 227 266 q 217 272 218 266 q 211 298 212 292 q 214 317 211 310 q 218 332 217 325 q 237 380 223 358 q 250 406 243 391 q 256 425 256 418 q 255 429 256 427 q 227 457 245 448 q 220 458 224 458 q 218 453 218 458 q 210 441 216 444 q 153 393 175 425 q 149 388 151 388 q 144 395 144 388 q 161 430 155 411 q 168 448 168 446 q 165 455 168 452 q 140 475 155 467 q 136 478 140 477 q 133 477 134 478 q 121 467 130 471 q 114 462 117 465 q 33 363 68 421 q 31 367 31 365 q 32 369 31 368 q 50 415 43 391 q 56 436 52 426 q 60 455 60 447 q 45 477 60 467 q 36 484 40 479 q 28 488 32 488 q 22 479 24 488 l 21 471 q -3 385 17 434 q -28 292 -28 315 q -5 241 -28 263 q 0 237 -2 237 q 4 243 3 237 q 22 292 12 268 q 47 338 31 317 q 68 373 59 355 q 90 402 77 389 q 108 425 100 412 q 115 430 110 430 q 117 429 115 430 q 105 401 109 415 q 98 380 102 391 q 89 349 89 359 q 109 309 89 330 q 115 301 113 304 q 121 298 117 298 q 124 301 123 298 q 182 387 152 355 q 201 412 193 398 q 202 411 201 411 q 203 410 203 410 l 197 397 q 178 332 178 351 q 193 278 178 311 q 224 241 203 256 q 240 235 233 235 z "},"n":{"ha":214,"x_min":-3,"x_max":245,"o":"m 46 240 q 47 250 47 241 l 47 257 q 51 277 47 267 q 58 293 57 285 q 74 333 63 315 q 102 380 90 367 q 113 395 108 388 q 115 398 115 398 q 116 398 115 398 q 119 395 119 398 l 119 393 q 112 358 113 376 l 111 335 q 149 264 111 298 l 158 256 q 162 254 161 254 q 165 255 163 254 q 170 258 168 256 q 197 275 179 260 q 230 311 214 291 q 245 346 245 331 q 243 348 245 348 q 199 307 238 348 l 176 283 q 164 277 170 277 q 157 283 159 277 q 151 317 151 300 q 184 437 151 340 q 189 461 189 452 q 187 470 189 465 q 163 485 185 475 q 163 486 163 486 q 157 488 159 488 q 154 484 156 487 q 138 465 150 477 q 110 440 115 444 q 58 374 79 412 l 58 373 q 54 368 56 368 q 51 372 51 368 q 52 376 51 376 l 58 399 q 79 476 79 471 q 73 486 79 481 q 54 496 67 490 q 49 498 52 497 q 43 500 46 500 q 40 499 41 500 q 39 494 39 497 l 39 488 q 38 481 39 484 q 37 476 37 479 q 26 435 32 456 q 13 385 13 395 q 7 368 12 376 q -3 327 -3 348 l -2 316 q 40 242 -2 277 q 45 240 43 240 l 46 240 z "},"o":{"ha":153,"x_min":-12,"x_max":201,"o":"m 47 224 q 59 231 56 224 q 88 292 81 266 q 98 332 94 317 q 102 347 102 339 l 102 353 q 95 361 100 361 q 88 354 92 361 l 88 353 q 56 284 77 317 l 53 279 q 32 253 44 264 l 31 253 q 27 250 30 250 q 24 253 25 250 q 17 290 17 271 q 33 345 17 313 q 42 368 40 360 q 55 395 47 382 q 70 420 64 407 q 103 469 81 446 l 105 469 q 109 463 109 469 q 109 450 109 457 q 100 410 109 429 q 96 401 98 406 q 86 386 92 393 q 83 380 83 383 q 85 377 83 379 q 141 346 113 346 q 172 353 155 346 q 191 362 184 357 q 201 382 201 369 q 195 389 201 389 q 149 372 189 389 q 121 366 136 366 q 116 368 117 367 q 115 369 115 368 q 116 374 115 371 q 138 435 138 409 l 138 446 l 138 452 q 116 486 138 475 q 96 491 105 491 q 45 444 69 491 l 40 436 q -12 299 -12 349 q 7 243 -12 258 q 39 226 20 232 q 47 224 43 224 z "},"p":{"ha":243,"x_min":-102,"x_max":292,"o":"m -87 -37 q -70 -31 -79 -37 q -63 -24 -64 -27 q -57 -8 -61 -16 q -52 8 -54 0 q -43 52 -50 31 q -32 92 -38 69 q -9 173 -20 138 l -6 180 q -1 197 -4 189 q 39 220 9 220 q 57 217 47 220 q 76 215 66 215 q 117 229 97 215 q 148 269 136 243 q 157 288 153 281 q 182 307 161 294 l 199 319 q 250 349 223 334 q 292 376 279 366 q 190 336 252 375 l 189 336 q 181 332 184 332 q 176 337 176 332 q 177 340 176 338 q 178 344 178 342 q 182 357 179 351 q 189 378 186 368 l 193 413 q 199 465 199 449 q 198 476 199 470 q 181 485 196 483 q 178 486 180 485 q 163 492 170 492 q 148 487 155 492 q 136 475 142 481 q 103 439 117 458 l 74 397 q 67 409 67 404 q 68 414 67 412 l 72 427 q 82 461 75 444 q 84 469 84 465 q 74 479 84 475 q 53 483 64 483 q 34 469 35 483 q 9 372 24 420 q -7 320 7 365 q -34 231 -21 275 q -52 172 -42 204 q -101 -9 -81 83 l -102 -17 q -92 -36 -102 -28 l -87 -37 m 21 231 q 13 236 13 231 q 14 240 13 239 q 16 243 16 241 q 62 355 32 302 q 144 462 97 412 q 149 466 145 465 q 154 458 154 466 l 154 453 q 142 373 154 412 l 136 351 q 116 298 129 323 q 103 279 112 286 q 96 273 99 276 q 26 233 64 248 q 21 231 24 231 m 45 230 l 42 230 l 90 258 q 45 230 75 230 z "},"q":{"ha":259,"x_min":3,"x_max":317,"o":"m 317 378 l 317 378 q 314 378 315 378 q 312 377 313 378 q 311 377 312 377 q 204 318 259 345 q 200 316 202 317 q 188 311 194 313 q 178 312 182 309 q 174 323 173 317 q 178 337 176 330 q 180 342 180 340 q 211 425 195 383 q 213 431 212 428 q 212 448 217 441 q 185 470 201 462 q 168 462 172 476 q 157 431 162 447 q 117 351 146 388 q 62 277 87 316 q 58 273 60 274 q 54 272 56 271 q 50 275 51 273 q 50 279 50 277 q 50 280 50 279 q 50 316 46 298 q 106 428 63 379 q 120 439 114 437 q 138 436 126 441 q 140 435 139 435 q 144 434 142 434 q 147 436 146 433 q 148 441 149 439 q 144 446 146 444 q 99 476 126 467 q 77 471 87 480 q 24 404 42 443 q 4 334 5 363 q 34 273 3 304 q 43 250 45 264 q 45 239 43 245 q 45 238 45 239 q 47 234 46 236 q 52 231 48 232 q 56 233 54 231 q 58 237 58 235 q 59 239 58 238 q 97 300 75 271 q 114 325 106 313 q 115 326 114 326 q 118 331 116 329 q 123 331 120 332 q 125 328 125 330 q 123 323 125 326 q 123 321 123 322 q 115 292 119 306 q 101 228 107 260 q 92 101 92 165 q 88 18 91 60 q 98 -5 87 5 q 103 -10 100 -7 q 113 -21 109 -15 q 115 -36 117 -26 q 117 -43 115 -40 q 124 -47 120 -46 q 130 -45 128 -47 q 132 -40 131 -43 q 132 -37 132 -39 q 155 28 143 -5 q 187 152 176 88 q 184 272 195 212 q 192 286 182 283 q 218 300 205 292 q 228 306 223 303 q 237 311 232 309 q 300 350 269 329 q 317 378 313 361 m 138 99 l 138 99 q 160 260 141 181 q 161 267 161 263 q 163 277 161 272 q 164 277 163 277 q 167 282 165 280 q 172 283 169 283 q 176 280 175 283 q 178 275 178 278 q 182 227 183 252 q 182 223 182 225 q 149 52 180 134 q 146 47 148 50 q 142 45 145 45 q 139 48 140 46 q 138 52 138 50 q 138 54 138 53 q 138 87 138 71 q 138 99 138 93 z "},"r":{"ha":252,"x_min":1,"x_max":316,"o":"m 3 309 l 3 309 q 3 300 3 305 q 5 283 1 291 q 27 243 15 262 q 35 230 31 237 q 40 227 37 226 q 45 233 43 228 q 52 260 47 247 q 119 388 77 329 q 122 392 121 390 q 125 398 123 395 q 132 398 127 400 q 134 394 134 397 q 133 389 134 392 q 132 383 132 386 q 132 375 132 379 q 131 363 130 369 q 138 354 132 358 q 156 336 150 348 q 182 328 164 318 q 186 331 184 330 q 207 344 197 336 q 290 417 249 380 q 297 422 294 420 q 313 438 306 429 q 314 439 313 439 q 316 443 315 441 q 315 446 316 444 q 310 448 313 449 q 305 446 308 448 q 279 426 292 435 q 223 384 251 406 q 198 368 211 375 q 180 355 189 361 q 174 352 177 353 q 170 353 172 351 q 167 357 167 355 q 168 362 167 360 q 168 363 168 363 q 171 376 170 370 q 189 439 176 409 q 191 449 192 446 q 186 453 190 452 q 180 456 183 455 q 178 456 178 456 q 170 460 174 458 q 160 465 165 464 q 149 458 155 466 q 147 452 148 455 q 146 449 146 450 q 145 448 146 448 q 142 442 144 445 q 100 390 119 418 q 71 342 85 367 q 57 320 64 332 q 56 318 56 319 q 54 315 55 317 q 50 315 52 314 q 47 318 47 316 q 47 321 47 319 q 47 323 47 322 q 49 330 48 326 q 49 331 49 330 q 53 355 51 342 q 64 414 58 384 q 65 418 64 416 q 77 460 68 440 q 79 472 80 468 q 71 479 77 476 q 59 485 66 483 q 39 490 43 492 q 31 471 34 488 q 24 437 27 454 q 22 422 24 430 q 14 385 19 404 q 3 309 5 347 z "},"s":{"ha":176,"x_min":-6,"x_max":216,"o":"m 75 208 q 99 218 91 208 q 104 234 104 225 q 89 284 104 244 q 87 291 87 288 q 92 300 87 296 l 124 331 q 186 386 153 360 q 212 410 200 397 q 213 412 212 410 q 215 415 214 413 q 216 418 216 418 q 210 425 216 425 q 203 422 206 424 q 95 338 149 393 q 71 318 75 318 q 66 320 68 318 q 35 393 35 349 q 60 457 35 428 q 100 478 78 478 q 124 473 111 478 q 130 471 126 471 q 134 475 134 471 q 131 480 134 477 q 64 517 104 513 q 41 511 50 517 q -2 454 9 489 q -6 427 -6 440 q 21 359 -6 393 l 28 349 q 54 312 42 332 q 56 303 56 307 q 5 240 56 297 q 2 229 2 236 q 4 216 2 222 q 9 209 6 210 q 14 208 12 208 q 15 208 14 208 q 18 211 16 208 q 33 222 27 221 q 49 215 39 222 q 75 208 62 208 m 52 241 q 47 244 47 241 l 47 246 q 65 266 52 260 l 67 267 q 71 260 71 267 q 65 248 71 254 q 52 241 59 242 z "},"t":{"ha":162,"x_min":-5,"x_max":245,"o":"m 52 237 q 115 277 77 237 q 189 367 159 317 q 197 397 197 381 q 195 412 197 404 q 58 267 146 320 q 43 260 48 260 q 39 262 42 260 q 35 286 35 264 q 92 475 35 342 q 126 561 111 517 q 202 578 132 575 q 231 581 217 579 q 245 590 245 582 q 242 599 245 594 q 223 624 233 619 q 205 627 217 627 l 191 627 q 172 625 184 625 q 151 635 151 625 q 161 663 151 644 q 165 676 165 671 q 155 693 165 685 q 125 708 138 708 q 114 696 117 708 q 97 630 104 650 q 80 617 92 617 q 13 615 54 615 q 5 613 7 615 q 6 607 5 610 q 9 599 7 604 q 42 562 20 562 q 48 563 45 562 q 64 564 52 564 q 68 557 68 562 l 68 553 q 37 465 55 509 q 26 439 31 452 l 21 425 q -5 318 -5 368 q 0 282 -5 300 q 27 248 5 264 q 52 237 39 237 z "},"u":{"ha":218,"x_min":-27,"x_max":260,"o":"m 21 250 q 39 257 30 250 q 72 290 58 273 q 110 340 100 328 l 111 332 q 109 319 111 327 l 108 316 q 104 295 104 302 q 123 275 104 287 q 159 256 142 256 q 173 260 165 256 q 218 300 199 275 q 256 380 245 337 l 257 383 q 259 393 259 389 q 257 400 260 399 q 254 401 255 401 q 247 396 250 401 q 241 385 241 389 q 189 303 223 338 q 144 275 171 282 l 139 275 q 132 279 132 275 q 134 285 132 281 q 151 336 147 309 q 157 364 153 350 l 163 385 q 181 441 171 414 q 182 450 182 446 q 168 465 182 460 q 155 467 160 467 q 143 452 146 467 q 138 436 142 444 q 94 356 119 394 q 24 273 61 305 l 22 273 q 18 277 18 273 q 18 280 18 279 q 19 283 19 282 q 48 361 28 321 q 60 389 55 375 q 82 444 70 417 q 86 458 86 452 q 83 467 86 463 q 52 481 73 481 l 48 481 q 38 469 40 480 q 12 391 38 461 q -27 282 -27 288 q -22 271 -27 275 l -21 271 q 21 250 9 250 z "},"v":{"ha":197,"x_min":-6,"x_max":250,"o":"m 56 389 l 56 389 q 55 399 55 393 q 52 444 54 418 q 51 454 52 448 q 50 465 50 460 q 27 490 47 486 q 12 492 20 492 q 5 493 9 493 q -4 491 -3 494 q -3 481 -6 487 q 9 408 9 446 q 9 390 9 399 q 24 283 11 336 q 35 270 26 275 q 43 265 39 267 q 78 237 63 255 q 85 234 81 234 q 93 235 90 233 q 96 241 96 237 q 111 290 98 268 q 118 303 115 296 q 189 431 148 370 q 234 490 210 462 q 250 528 249 506 q 244 534 249 532 q 236 538 240 536 q 235 538 235 538 q 231 538 233 539 q 227 535 229 537 q 216 524 222 529 q 196 498 204 511 q 160 441 180 469 q 132 401 146 422 q 77 302 104 352 q 77 300 77 301 q 74 296 76 298 q 70 294 73 294 q 66 298 66 295 q 64 303 65 300 q 64 303 64 303 q 62 325 63 314 q 56 389 57 352 z "},"w":{"ha":324,"x_min":-5,"x_max":336,"o":"m 51 212 q 61 222 58 212 q 115 347 80 288 q 147 388 127 370 q 144 362 144 375 q 146 342 144 352 q 148 316 148 330 l 147 308 q 149 292 147 302 q 169 269 150 282 q 203 239 187 255 q 214 233 210 233 q 226 245 221 233 q 330 449 261 352 q 336 463 336 457 q 331 472 336 468 q 322 477 326 477 q 307 470 316 477 q 298 460 304 470 q 233 352 260 410 q 222 330 228 340 q 205 294 212 313 q 199 306 199 298 l 201 343 q 212 433 203 388 l 212 437 q 197 458 212 450 l 191 461 q 170 470 179 470 q 155 458 155 470 l 155 454 q 152 443 155 448 q 62 296 100 374 q 61 293 61 295 q 59 291 60 292 q 57 290 58 290 q 51 299 51 290 q 77 445 56 374 q 81 472 81 463 q 81 479 81 474 q 68 492 80 485 q 35 505 49 505 q 24 492 26 505 q 18 452 22 472 q -5 291 -5 367 q -4 272 -5 283 q 8 248 -3 261 q 51 212 42 212 z "},"x":{"ha":224,"x_min":13,"x_max":266,"o":"m 151 229 q 195 239 172 231 l 197 240 q 204 246 204 243 q 200 252 204 252 q 194 248 197 252 q 171 239 176 239 q 149 253 163 239 q 139 267 143 259 q 119 310 125 287 q 106 340 113 326 q 106 348 106 342 q 140 408 114 372 q 161 433 149 422 q 176 450 169 441 q 259 530 212 495 l 265 534 q 266 538 266 534 q 256 543 265 543 l 254 543 q 106 412 203 543 l 104 408 q 93 397 98 397 q 82 407 87 397 l 77 423 q 68 450 75 437 q 60 471 64 460 q 57 477 60 475 q 40 483 50 483 q 24 477 31 483 q 20 470 20 473 q 22 463 20 466 q 24 458 24 460 l 37 422 l 43 404 q 56 369 47 386 q 62 351 62 360 q 56 332 62 342 q 17 254 33 295 q 13 239 13 244 q 15 233 13 235 q 37 230 17 230 q 55 242 54 230 q 63 266 57 255 q 70 281 69 277 q 80 295 73 295 q 86 291 84 295 q 90 283 89 288 q 93 277 92 279 q 96 272 95 274 q 116 243 104 256 q 151 229 128 230 z "},"y":{"ha":294,"x_min":-15,"x_max":359,"o":"m 9 -104 q 13 -94 12 -104 q 23 -84 14 -84 q 30 -85 26 -84 q 43 -87 37 -87 q 83 -58 70 -87 q 88 -48 85 -53 q 119 43 115 -5 q 164 136 125 99 q 208 184 187 159 q 260 241 233 214 q 325 304 294 271 q 355 336 339 321 q 359 342 359 340 q 354 349 359 349 q 349 348 351 349 q 325 329 338 337 q 286 294 302 315 q 244 252 279 284 q 168 172 192 203 l 154 157 q 152 152 153 155 q 146 146 149 146 q 140 157 140 146 l 140 161 l 140 164 q 167 287 151 226 q 171 296 168 291 q 175 307 174 300 q 216 411 186 363 q 224 429 224 423 q 210 445 224 434 l 204 449 q 184 457 192 457 q 168 440 177 457 q 165 435 166 438 q 162 429 164 432 q 150 402 155 416 q 68 286 138 370 l 45 254 q 42 252 44 252 q 40 252 41 252 q 38 256 38 252 l 39 271 q 56 342 41 308 q 68 374 64 358 q 100 432 79 406 q 107 446 107 439 q 81 471 107 459 l 79 471 q 73 473 76 473 q 61 467 66 473 q 7 353 32 433 q -5 281 -5 313 q 14 245 -5 262 q 30 223 28 237 q 35 212 30 217 q 46 206 39 206 q 54 214 52 206 q 107 295 57 227 q 109 298 108 296 q 111 301 110 300 q 113 302 113 302 q 119 298 119 302 q 116 290 119 296 q 90 140 97 216 q 36 3 84 63 q -12 -71 7 -31 q -15 -83 -15 -77 q -2 -102 -15 -94 q 6 -104 3 -104 l 9 -104 z "},"z":{"ha":283,"x_min":-23,"x_max":332,"o":"m 87 -26 q 110 -6 101 -26 q 113 1 111 -2 q 115 6 115 3 q 160 157 148 94 q 248 277 182 235 l 270 291 q 322 332 297 307 q 332 345 332 340 q 330 350 332 347 q 326 352 328 352 q 293 334 319 352 q 200 261 240 306 q 195 257 198 257 q 191 261 191 257 q 193 272 191 267 q 196 282 196 277 q 195 288 196 285 q 159 316 183 316 q 56 296 127 316 q 52 295 54 295 q 45 300 45 295 q 51 307 45 305 q 77 328 57 310 q 218 447 216 444 q 224 454 224 450 q 219 465 224 457 q 203 473 214 473 q 42 462 123 467 q 18 451 18 462 q 23 431 18 444 q 44 416 27 418 l 58 418 q 79 420 68 418 q 153 426 101 423 q 146 415 149 418 l 130 401 q 7 291 33 322 q -16 269 0 279 q -23 258 -23 265 q -22 252 -23 256 q -20 243 -20 248 q -6 224 -18 227 l 0 224 q 87 256 41 245 q 164 271 150 271 q 170 264 170 271 l 169 256 q 118 137 157 206 l 94 92 q 68 18 77 57 l 68 16 q 71 0 68 9 q 79 -18 74 -9 q 87 -26 83 -26 m 89 -2 l 91 16 q 117 79 97 50 q 89 -2 106 22 z "},"{":{"ha":155,"x_min":-11,"x_max":147,"o":"m 95 114 q 87 115 90 114 q 46 159 58 132 q 31 248 31 192 q 33 299 31 274 q 35 344 35 321 q 31 404 35 374 q 20 457 27 435 q -3 490 14 477 q -11 504 -11 497 q -3 523 -11 511 q 1 527 -1 524 q 15 541 8 541 q 21 538 18 541 q 34 531 27 534 q 46 525 41 529 q 56 521 52 521 q 63 525 60 521 q 69 533 67 529 q 71 542 71 537 q 66 602 71 557 q 62 702 62 652 q 130 854 62 819 q 139 859 134 858 q 146 852 144 859 l 147 847 q 140 826 147 838 q 122 810 132 814 q 99 801 104 808 q 90 722 90 789 q 94 650 90 686 q 98 581 98 601 q 96 546 98 568 q 75 498 94 524 q 59 444 59 476 l 60 426 q 60 414 60 420 l 64 375 q 58 273 58 292 q 62 228 58 252 q 84 178 65 203 q 106 159 94 166 q 120 149 113 155 l 123 146 q 130 138 130 142 q 126 130 130 135 q 108 117 120 121 q 95 114 101 114 z "},"|":{"ha":152,"x_min":33,"x_max":124,"o":"m 97 34 q 103 47 103 34 l 102 58 q 94 182 94 120 q 98 325 94 244 q 113 602 102 463 q 115 663 115 632 q 121 755 115 724 q 124 777 124 766 l 123 789 q 117 871 117 829 q 116 918 117 895 q 100 944 116 941 q 75 957 86 947 q 65 960 70 960 q 54 941 54 960 q 58 902 54 930 q 62 859 61 881 l 63 803 q 53 553 63 677 q 39 315 50 532 q 33 190 33 206 q 41 86 33 137 l 43 66 q 60 43 45 45 q 85 37 75 43 q 97 34 93 34 z "},"}":{"ha":186,"x_min":14,"x_max":200,"o":"m 45 114 q 53 115 50 114 q 99 159 83 132 q 130 299 127 208 q 149 416 132 363 q 191 490 163 469 q 200 505 200 498 q 195 523 200 513 q 192 527 193 524 q 180 541 186 541 q 173 538 177 541 q 159 531 166 534 q 146 525 152 529 q 136 521 140 521 q 130 524 132 521 q 124 537 124 531 q 136 602 124 547 q 156 734 156 690 q 151 785 156 760 q 105 854 143 833 q 96 859 101 858 q 88 852 92 859 q 87 843 87 848 q 92 825 87 836 q 107 810 97 814 q 129 801 125 808 q 133 780 133 794 q 115 650 133 723 q 100 550 100 587 q 115 498 100 522 q 125 463 125 480 q 120 426 124 444 q 118 414 119 420 q 114 399 117 407 q 109 375 111 387 q 104 293 107 334 q 64 178 99 219 q 39 159 52 166 q 24 149 31 155 q 20 146 22 147 q 14 137 14 142 q 33 117 14 124 q 45 114 39 114 z "},"~":{"ha":539,"x_min":18,"x_max":481,"o":"m 335 507 q 378 513 347 507 q 452 581 420 521 q 474 617 461 600 q 481 636 481 625 q 478 651 480 644 q 469 661 476 659 q 460 653 463 661 l 458 650 q 283 544 391 544 l 269 545 l 267 545 l 259 546 q 254 538 254 546 q 256 533 254 535 q 263 530 259 532 q 270 527 267 529 l 272 526 q 335 507 300 507 m 56 510 q 64 521 61 510 q 106 558 73 545 q 127 570 118 564 q 182 583 148 583 l 198 583 q 218 570 211 583 q 252 529 230 549 l 254 528 q 227 572 249 548 q 210 591 218 581 q 150 621 191 621 q 127 617 138 621 l 112 615 q 35 575 65 610 q 18 550 18 557 q 39 526 18 543 q 45 518 43 523 q 56 510 52 510 z "},"":{"ha":228,"x_min":46,"x_max":121,"o":"m 74 435 q 100 449 92 435 q 116 521 116 484 q 113 555 116 538 q 109 587 109 572 q 111 611 109 600 q 117 702 117 656 l 116 735 l 116 769 q 79 790 114 790 l 71 790 q 52 772 52 788 l 52 766 q 57 684 57 724 q 56 653 57 668 q 56 624 56 638 l 56 597 q 52 459 56 521 q 51 446 51 454 q 52 441 51 445 q 60 436 52 438 q 74 435 67 435 m 70 111 q 89 116 78 111 q 104 136 104 121 q 102 147 104 144 l 102 177 q 111 279 102 224 q 119 358 119 322 l 121 376 q 100 394 121 393 l 77 395 q 58 375 58 395 l 58 364 q 53 287 58 326 q 46 199 46 243 q 50 136 46 168 q 70 111 52 111 z "},"":{"ha":236,"x_min":11,"x_max":196,"o":"m 60 694 q 79 718 76 694 l 82 728 q 73 753 82 744 q 50 762 64 762 q 32 753 41 761 q 17 735 22 745 q 11 718 11 726 l 11 715 q 50 694 18 694 l 60 694 m 174 697 q 193 722 190 697 l 196 732 q 187 756 196 747 q 163 765 178 765 q 146 756 155 764 q 131 739 136 749 q 125 722 125 729 l 125 719 q 163 698 132 698 l 174 697 z "},"":{"ha":438,"x_min":35,"x_max":437,"o":"m 174 134 l 192 137 q 268 162 232 140 q 322 213 298 184 q 368 272 346 241 q 381 298 376 284 q 395 323 387 311 q 425 399 420 358 q 433 481 433 439 l 433 492 q 435 504 433 498 q 437 517 437 509 q 435 525 437 521 q 429 555 429 539 q 390 667 429 614 q 327 734 361 703 q 266 755 302 755 q 239 749 250 755 q 169 684 197 724 q 138 628 152 656 q 126 604 133 616 q 69 454 88 528 q 62 430 66 442 q 52 377 52 405 q 49 363 52 370 l 47 356 q 35 269 35 312 q 43 197 35 233 q 73 159 50 174 q 137 140 103 141 q 174 134 156 139 m 150 153 q 98 188 120 153 q 81 245 81 214 l 81 259 q 82 262 82 260 l 81 281 q 95 368 81 325 l 102 400 q 158 564 121 477 q 210 659 178 614 q 229 671 217 668 q 276 696 240 675 q 288 701 282 701 q 298 697 293 701 q 311 694 304 694 q 353 674 340 692 q 373 633 366 656 q 375 627 374 629 q 393 527 393 577 q 385 426 393 477 q 359 353 379 387 q 208 165 305 229 q 191 161 200 161 l 189 161 q 175 159 182 161 q 150 153 161 153 m 235 271 q 302 302 273 271 q 339 376 330 335 q 340 386 340 382 q 331 395 340 395 q 310 384 315 395 q 245 302 281 340 q 227 292 235 292 q 207 310 214 292 q 195 368 195 338 q 197 392 195 380 l 210 459 q 212 467 210 463 q 233 525 224 496 q 248 562 239 554 q 286 570 257 569 q 300 582 300 570 q 294 592 300 587 l 294 593 q 278 602 285 602 q 243 604 260 602 l 240 604 q 183 535 207 604 q 178 524 181 529 q 146 364 151 446 l 145 350 q 146 339 145 345 q 149 328 148 333 q 166 290 153 308 q 180 280 173 282 q 206 275 186 278 q 235 271 221 271 z "},"":{"ha":362,"x_min":52,"x_max":281,"o":"m 248 459 q 261 464 254 459 q 264 471 264 467 q 272 529 264 500 q 281 585 281 557 q 280 602 281 598 q 279 609 279 606 q 280 616 279 613 q 281 623 281 620 q 276 641 281 633 q 228 661 260 661 q 194 652 215 661 q 125 638 168 638 l 115 638 q 61 629 87 638 q 58 629 60 629 q 52 623 52 629 q 54 618 52 620 q 60 615 56 616 q 68 614 64 614 q 74 613 71 614 q 128 610 101 610 l 201 613 q 217 598 217 613 l 216 591 q 201 490 205 541 l 200 485 q 210 472 200 473 q 227 465 219 470 q 248 459 238 459 z "},"":{"ha":552,"x_min":43,"x_max":538,"o":"m 186 266 q 203 284 201 266 q 212 332 206 309 q 220 370 216 351 q 230 386 222 386 q 249 375 235 386 q 282 361 267 361 q 278 369 282 366 l 269 384 q 260 408 260 397 q 261 416 260 412 q 279 450 267 435 q 327 517 306 481 q 348 551 337 534 q 360 589 360 570 q 359 604 360 591 q 343 631 358 616 q 290 652 320 652 q 267 650 286 652 q 223 622 247 648 q 214 612 219 616 q 189 562 189 587 q 192 543 190 552 q 195 519 195 531 q 181 417 191 467 q 173 375 176 386 q 170 366 171 370 l 165 346 q 156 289 159 318 q 163 272 156 276 l 181 267 l 186 266 m 246 470 q 239 475 239 470 q 241 480 239 477 q 243 484 243 482 q 245 500 243 492 q 246 526 246 513 l 245 550 q 276 605 245 586 q 283 611 279 607 q 292 617 286 615 q 299 621 296 618 q 303 624 302 623 q 307 625 305 625 q 317 604 317 625 q 295 542 312 570 l 290 534 q 271 503 282 517 q 256 479 263 492 l 255 478 q 246 470 251 470 m 132 199 q 138 207 138 199 q 134 214 138 210 q 92 305 94 248 q 87 336 91 321 q 86 356 86 347 q 91 392 86 374 q 96 426 95 409 q 100 450 96 438 l 104 461 q 153 585 124 524 q 214 669 178 631 q 240 698 228 683 q 315 748 272 732 q 353 758 334 758 q 393 747 372 758 q 396 745 394 747 q 401 743 398 743 q 406 746 403 743 q 408 752 408 749 q 403 761 408 755 q 359 781 383 777 q 336 788 347 784 q 333 789 335 789 l 330 787 q 297 782 313 782 q 248 762 269 778 q 248 762 248 762 q 145 659 187 720 q 60 479 87 575 q 43 375 43 422 l 43 353 q 125 201 43 238 q 132 199 129 199 m 207 174 q 229 177 221 174 q 294 198 262 183 q 393 265 349 224 q 482 359 441 309 q 538 507 537 424 q 437 732 534 625 q 427 739 432 739 q 422 736 425 739 q 420 731 420 734 q 425 723 420 726 q 454 688 441 713 q 460 676 456 682 q 505 513 505 606 q 474 418 505 475 l 473 417 q 418 347 451 378 q 399 327 408 337 q 310 250 359 284 l 308 249 q 244 214 279 224 q 223 207 233 211 q 185 197 201 197 q 170 199 178 197 l 168 199 q 163 197 166 199 q 161 191 161 195 q 162 189 161 190 q 164 187 163 188 q 165 186 165 186 q 207 174 186 174 m 340 336 q 348 337 345 336 q 352 344 351 338 q 339 355 351 355 q 331 354 334 355 q 327 347 327 353 q 340 336 328 336 z "},"":{"ha":385,"x_min":26,"x_max":319,"o":"m 105 646 l 105 646 q 120 648 113 647 q 151 650 136 648 q 208 657 180 652 q 292 665 249 666 q 295 664 294 665 q 308 664 302 663 q 316 672 313 665 q 314 687 319 680 q 302 698 310 693 q 261 713 283 711 q 217 712 240 715 q 211 711 214 712 q 136 701 173 708 q 59 697 98 695 q 46 697 53 697 q 36 697 41 698 q 28 691 31 696 q 28 686 26 688 q 31 682 29 684 q 35 677 34 680 q 105 646 58 638 z "},"":{"ha":182,"x_min":33,"x_max":158,"o":"m 33 826 l 33 826 q 45 783 33 802 q 54 774 49 777 q 64 772 58 770 q 67 777 66 773 q 66 784 67 780 q 66 790 66 787 q 66 801 66 795 q 65 812 65 807 q 66 819 66 816 q 69 851 66 836 q 83 878 72 866 q 86 882 84 880 q 92 887 90 884 q 92 895 94 890 q 85 901 89 900 q 77 901 81 901 q 73 902 75 901 q 58 895 64 903 q 33 826 33 866 m 99 750 l 99 750 q 107 751 104 749 q 113 757 111 753 q 121 762 117 760 q 150 794 142 772 q 151 840 158 815 q 139 861 147 852 q 136 867 137 864 q 132 874 134 872 q 125 874 130 877 q 121 866 121 871 q 125 855 122 861 q 127 850 125 852 q 117 798 136 819 q 111 791 114 795 q 92 777 104 782 q 85 762 83 774 q 99 750 87 749 z "},"":{"ha":465,"x_min":22,"x_max":433,"o":"m 345 468 l 345 468 q 346 467 346 468 q 365 467 355 467 q 420 467 393 467 q 422 467 421 467 q 428 468 425 467 q 432 473 431 469 q 430 480 433 477 q 425 484 428 482 q 381 497 405 496 q 262 495 321 500 q 241 494 252 494 q 226 498 229 493 q 226 512 223 503 q 230 522 227 517 q 234 536 233 529 q 241 585 236 560 q 248 651 248 617 q 243 677 248 667 q 225 696 239 688 q 210 700 214 702 q 206 686 206 698 q 206 671 205 679 q 205 646 207 659 q 194 578 197 612 q 183 507 191 542 q 177 490 181 497 q 163 482 174 484 q 115 473 139 479 q 68 464 92 467 q 41 456 54 462 q 33 453 37 454 q 26 448 28 452 q 24 439 24 444 q 25 433 23 435 q 30 431 27 432 q 35 429 33 431 q 65 419 50 417 q 94 428 80 422 q 103 432 99 430 q 137 439 120 437 q 155 444 146 441 q 167 441 164 445 q 168 430 170 437 q 159 370 165 399 q 149 305 153 338 q 150 268 146 285 q 173 241 153 252 q 176 237 175 239 q 181 234 178 235 q 186 235 183 233 q 193 243 191 238 q 193 252 194 248 q 193 297 190 275 q 193 305 193 301 q 199 334 195 320 q 203 359 202 346 q 212 424 207 391 q 254 463 217 460 q 318 467 286 465 q 345 468 332 467 m 375 181 l 375 181 q 384 195 393 180 q 354 217 374 214 q 312 220 334 222 q 284 218 298 218 q 168 204 226 214 q 33 198 101 195 q 32 198 33 198 q 27 198 29 199 q 24 195 25 197 q 24 188 22 191 q 29 184 26 186 q 49 170 41 180 q 52 167 50 168 q 81 157 64 154 q 98 159 90 158 q 105 159 102 159 q 146 163 125 161 q 248 172 197 168 q 279 178 264 173 q 328 184 302 187 q 351 182 339 181 q 375 181 363 184 z "},"":{"ha":175,"x_min":33,"x_max":131,"o":"m 130 851 l 130 851 q 130 862 130 858 q 125 870 129 866 q 111 882 121 874 q 92 889 101 891 q 79 874 83 887 q 58 823 72 847 q 41 781 47 802 q 37 774 39 777 q 34 768 35 771 q 37 760 33 764 q 51 756 44 755 q 65 762 58 758 q 104 802 91 777 q 114 818 109 810 q 116 821 115 819 q 126 837 121 829 q 130 851 131 844 z "},"":{"ha":162,"x_min":12,"x_max":128,"o":"m 69 -67 q 99 -56 87 -66 q 128 -17 128 -34 q 101 21 128 5 q 68 31 85 31 l 57 30 q 51 35 51 30 q 53 41 51 37 q 75 80 64 66 q 89 111 89 98 q 73 130 89 123 q 65 133 67 133 q 58 124 62 133 q 56 119 57 121 q 19 52 37 85 l 17 47 q 12 28 12 37 q 18 14 12 21 q 45 1 31 1 q 60 6 52 1 q 77 10 68 10 q 91 9 85 10 q 96 -1 96 7 q 91 -14 96 -6 q 52 -50 74 -39 q 47 -56 47 -53 q 50 -61 47 -60 q 53 -64 52 -63 q 56 -65 55 -64 q 66 -67 60 -67 l 69 -67 z "},"":{"ha":492,"x_min":36,"x_max":454,"o":"m 282 127 q 315 146 302 127 l 317 150 q 323 161 323 157 q 320 167 323 163 q 305 193 311 179 q 284 224 297 211 q 269 256 271 238 q 251 297 265 278 q 237 347 237 317 q 252 387 237 368 q 306 456 281 418 q 369 531 334 496 q 393 561 382 545 q 444 614 415 591 q 454 631 454 621 q 448 644 454 640 q 424 652 437 652 q 412 651 422 652 q 391 640 403 651 q 382 631 385 636 q 374 621 378 626 q 298 535 332 581 q 258 486 278 510 q 232 451 243 469 q 213 425 223 438 q 206 417 209 417 q 200 422 203 417 q 193 431 197 427 q 180 452 184 439 q 158 494 172 474 l 149 508 q 121 543 137 527 q 104 564 113 553 q 77 581 93 581 q 39 555 51 581 q 36 544 36 549 q 37 536 36 541 q 50 528 39 531 q 58 525 55 528 q 64 519 62 522 q 68 515 66 517 q 96 479 84 498 q 114 453 104 465 q 161 365 146 414 q 162 357 162 361 q 156 339 162 347 q 117 279 140 318 q 94 241 106 260 q 73 199 82 221 q 65 184 69 191 q 58 154 58 169 q 75 132 58 132 l 92 133 l 105 132 q 134 162 134 132 l 134 173 q 163 235 134 191 q 187 279 176 256 q 193 285 189 285 q 199 280 199 285 q 208 254 201 266 q 217 232 214 243 q 225 211 219 220 l 229 205 q 241 184 235 195 q 258 155 252 170 q 282 127 269 130 z "},"":{"ha":553,"x_min":36,"x_max":524,"o":"m 98 313 q 113 316 105 313 q 229 352 168 340 q 259 359 244 355 q 340 372 298 372 q 370 376 355 373 q 401 379 386 379 l 416 379 q 426 380 421 379 q 437 380 431 380 q 461 375 449 380 q 477 372 469 372 q 498 374 489 372 q 524 394 524 378 q 513 408 524 401 q 506 411 509 409 q 484 425 496 421 q 385 437 435 437 q 319 432 352 437 q 222 420 258 420 l 215 420 q 170 407 203 420 q 82 386 127 389 q 44 371 60 385 q 36 355 36 363 q 37 347 36 353 q 50 337 37 341 q 75 322 64 332 q 98 313 86 313 m 288 150 q 307 165 299 150 q 315 206 315 186 l 315 222 q 309 254 315 242 q 279 275 302 266 q 262 279 270 279 q 236 235 236 279 l 234 218 q 231 189 231 199 l 231 181 q 269 156 231 170 q 270 155 269 155 q 275 153 272 155 q 288 150 281 150 m 288 517 q 309 526 300 517 q 340 601 334 560 l 340 604 q 321 623 340 623 q 289 611 303 623 q 273 571 275 599 q 268 546 273 557 l 269 539 q 271 527 269 532 q 288 517 273 517 z "},"":{"ha":418,"x_min":-27,"x_max":436,"o":"m 149 34 q 161 46 161 34 l 160 54 q 151 119 151 87 q 156 168 151 144 q 166 250 163 209 q 177 331 170 290 q 190 427 185 378 q 200 505 194 467 l 202 519 q 215 568 206 555 q 241 576 222 576 q 258 575 248 576 l 264 575 q 273 576 269 575 q 292 576 277 576 q 414 540 356 576 l 415 540 q 425 535 422 535 q 431 538 429 535 q 436 552 436 543 q 435 559 436 559 q 428 583 434 572 q 361 632 406 624 q 332 640 346 635 q 252 652 292 652 l 233 652 q 219 665 219 652 q 220 674 219 669 q 229 745 229 709 l 229 766 q 230 806 230 779 q 224 831 230 823 q 204 840 219 839 l 182 841 q 169 823 169 841 l 170 774 q 167 669 170 760 q 142 633 166 636 q 0 595 70 623 q -27 570 -27 584 q -16 537 -27 558 q -13 527 -14 533 q -8 517 -11 522 l -5 513 q 7 503 1 503 q 15 507 10 503 q 132 557 69 549 l 137 557 q 152 536 152 557 q 143 465 152 508 q 136 424 139 445 l 123 335 q 104 185 110 261 l 103 178 q 97 121 97 149 q 99 87 97 104 q 103 58 99 74 q 143 34 110 34 l 149 34 z "},"":{"ha":298,"x_min":12,"x_max":287,"o":"m 243 175 q 256 194 254 178 q 256 196 256 195 l 257 205 q 236 255 257 227 q 227 268 231 261 q 184 325 208 298 q 131 398 153 358 l 130 399 q 110 431 122 416 q 100 452 100 441 q 111 472 100 463 l 134 498 q 173 541 152 521 q 225 596 201 566 q 279 652 250 625 q 287 668 287 659 q 279 680 287 675 q 270 686 275 682 q 252 695 260 695 q 239 688 245 695 q 208 650 223 669 q 144 578 178 614 q 87 513 115 547 q 59 484 75 498 q 16 431 32 463 q 13 426 15 429 q 12 419 12 423 q 14 414 12 417 q 23 408 18 408 q 30 410 26 408 q 44 416 38 416 q 54 412 49 416 q 76 384 62 406 q 137 304 99 349 q 233 182 186 245 l 233 182 q 243 175 236 176 z "},"":{"ha":250,"x_min":12,"x_max":249,"o":"m 65 193 q 79 212 75 193 q 138 321 92 262 l 165 357 q 245 451 201 408 q 249 459 249 455 q 241 467 249 465 q 214 491 222 475 q 104 637 166 569 q 68 686 77 664 q 54 694 64 694 l 50 694 q 33 689 41 694 q 26 686 30 687 q 12 673 12 681 q 21 657 12 667 q 176 473 104 570 q 181 460 181 467 q 174 446 181 454 q 144 409 159 428 q 106 361 126 385 q 47 274 72 321 q 20 227 35 250 q 16 217 16 221 q 28 206 16 209 q 51 199 40 206 q 65 193 59 193 z "},"":{"ha":232,"x_min":-31,"x_max":340,"o":"m 20 24 q 42 31 30 24 q 58 50 54 37 q 86 127 67 92 q 87 129 86 128 q 161 307 127 216 q 245 510 198 404 q 332 677 280 599 q 340 695 340 687 q 336 706 340 701 q 294 724 320 724 q 261 700 268 724 q 229 633 248 664 q 200 576 213 606 q 172 510 187 543 l 149 458 l 122 397 q 84 307 102 352 q 68 271 77 288 q 47 218 55 245 q 20 154 36 184 q -3 101 6 129 q -16 79 -8 89 q -31 43 -28 64 l -31 41 q -28 30 -30 35 q -22 24 -27 24 q -13 27 -18 24 q -3 30 -7 30 q 8 27 1 30 q 20 24 11 24 z "},"":{"ha":728,"x_min":39,"x_max":729,"o":"m 64 90 q 96 124 94 90 l 94 151 q 100 180 94 167 q 117 240 113 209 q 123 271 119 256 q 168 407 142 340 q 189 465 179 436 q 205 513 203 507 q 221 574 218 542 q 229 581 221 581 q 233 574 233 581 q 245 507 245 517 q 264 302 252 380 l 264 298 q 294 195 271 244 q 348 155 315 157 q 358 153 353 155 q 389 146 368 146 q 432 163 419 146 q 465 309 465 214 l 465 367 q 463 443 465 405 q 461 521 461 481 q 463 583 461 552 l 463 599 l 461 662 q 440 711 460 691 q 425 718 433 718 q 418 716 422 718 q 413 712 414 715 q 412 704 412 708 q 413 627 412 665 q 414 563 414 595 l 414 515 l 414 438 l 414 400 q 400 237 414 318 l 399 231 q 385 189 395 208 l 384 187 q 369 176 376 176 q 359 180 361 176 q 353 191 356 184 q 348 199 351 195 q 342 209 345 203 q 313 336 319 271 l 312 340 q 307 406 308 373 q 298 494 307 450 q 292 543 294 517 q 281 611 292 576 q 238 654 266 647 q 212 658 224 658 q 163 626 163 658 q 146 528 163 576 q 136 492 141 511 q 115 429 128 460 l 114 425 q 96 374 102 400 q 78 309 90 340 q 61 252 68 281 l 54 220 q 39 110 39 164 q 64 90 39 90 m 623 376 q 634 379 629 376 q 697 463 678 412 q 703 500 703 481 q 686 565 703 533 q 634 604 667 594 q 608 608 621 608 q 542 578 564 608 q 538 566 538 572 q 531 518 535 541 q 524 456 524 482 q 604 376 524 380 l 623 376 m 598 414 q 592 417 593 414 q 591 427 591 421 l 591 462 q 590 482 590 472 q 595 519 590 498 q 625 572 611 572 q 640 560 636 572 q 646 519 646 539 q 634 463 646 491 q 609 422 624 442 q 598 414 605 414 m 534 191 q 538 192 536 191 q 592 205 564 205 l 602 204 l 628 205 q 672 208 650 208 q 715 204 709 208 q 722 203 720 203 q 727 205 725 203 q 729 212 729 208 q 723 225 729 218 q 664 250 702 250 q 545 241 604 250 l 498 235 q 485 225 485 233 q 500 207 485 217 q 534 191 521 191 z "},"":{"ha":445,"x_min":7,"x_max":371,"o":"m 342 543 q 357 562 357 543 q 365 616 359 589 q 370 669 370 644 l 371 701 q 371 713 371 706 q 366 725 370 720 q 353 736 362 730 q 345 739 348 739 q 338 734 342 738 q 304 690 318 713 q 302 686 303 688 q 298 685 300 685 q 292 690 292 685 l 292 692 q 282 720 292 710 q 258 736 272 730 q 252 740 256 738 q 244 743 248 743 q 236 731 237 743 q 224 679 235 719 q 210 615 210 620 q 229 585 210 595 l 233 584 q 238 591 237 584 q 257 648 247 620 q 258 652 258 650 q 264 659 258 659 q 269 652 269 659 q 276 635 269 641 q 294 627 286 627 q 306 635 301 627 q 317 648 311 642 l 324 657 q 330 662 327 662 q 336 653 336 662 q 336 648 336 650 q 330 610 330 629 q 329 597 330 603 q 328 576 328 586 q 328 562 328 568 q 333 549 329 555 q 342 543 336 544 m 72 564 q 89 580 82 564 q 96 597 92 589 q 108 626 103 611 q 119 654 113 640 q 134 707 132 678 q 165 726 134 726 q 182 725 174 726 q 197 724 190 724 l 200 723 q 205 723 203 723 q 210 727 208 724 q 212 733 212 730 q 193 753 212 745 q 136 762 165 762 q 115 761 126 762 l 111 760 q 22 743 66 758 l 20 743 q 7 732 7 738 q 9 725 7 727 q 27 704 11 704 q 73 713 50 707 q 76 714 74 713 q 79 715 77 715 q 81 715 81 715 q 86 713 84 715 q 92 703 92 709 q 80 665 92 690 q 72 643 75 654 l 60 603 l 56 587 q 72 564 56 564 z "},"":{"ha":378,"x_min":14,"x_max":355,"o":"m 153 92 q 175 93 159 92 q 239 153 208 97 q 258 180 248 167 q 283 230 273 203 q 301 266 292 249 q 349 401 340 332 q 355 480 355 440 q 351 545 355 512 q 297 633 345 594 l 295 636 q 287 641 290 641 q 281 638 284 641 q 278 631 278 635 q 283 621 278 625 q 298 591 293 607 l 302 578 q 308 558 308 566 q 303 546 308 553 q 279 534 299 539 q 85 408 173 505 q 14 238 14 324 q 90 117 14 146 l 85 126 q 66 201 66 159 q 109 348 66 279 q 279 496 172 448 q 293 499 287 499 q 309 476 309 499 q 300 422 308 448 q 292 379 294 401 q 283 346 290 361 q 254 288 268 317 q 202 195 234 238 q 185 171 193 183 q 159 136 174 152 q 119 116 144 121 q 113 108 113 114 q 119 100 113 102 q 153 92 134 92 m 117 578 q 134 589 125 578 q 226 651 175 651 q 242 650 233 651 l 248 649 q 256 657 256 649 q 249 666 256 661 q 247 667 248 666 q 198 677 224 677 q 168 682 183 678 q 77 619 112 667 q 71 606 71 612 q 91 586 71 593 l 100 583 q 117 578 108 578 z "},"":{"ha":337,"x_min":24,"x_max":317,"o":"m 68 117 q 85 121 77 118 q 182 128 109 128 l 223 127 q 274 127 248 127 q 313 130 309 127 q 317 148 317 133 q 307 193 317 172 q 288 256 291 222 q 284 441 284 349 l 285 562 l 286 583 q 283 630 286 604 q 267 686 281 656 q 244 701 260 701 l 235 701 q 217 685 218 701 q 201 631 215 656 q 170 551 190 608 q 146 485 159 517 l 122 418 q 98 353 110 386 q 69 274 85 313 q 58 241 62 258 q 31 181 50 209 q 24 163 24 172 q 34 136 24 151 q 68 117 44 117 m 81 184 q 62 199 62 184 q 77 250 62 216 q 86 278 82 264 q 108 339 96 309 q 134 417 122 377 q 163 497 146 457 q 181 543 173 519 q 210 610 193 578 l 212 615 q 225 627 217 627 q 236 611 236 627 q 247 496 247 569 l 245 459 l 245 437 q 246 391 245 414 q 245 346 246 368 l 245 316 q 248 226 245 271 l 248 220 q 247 202 248 211 q 231 184 247 185 q 81 184 134 184 z "},"":{"ha":411,"x_min":-24,"x_max":427,"o":"m 345 120 q 350 122 347 120 q 353 128 353 125 l 349 140 q 345 156 348 148 q 339 183 339 170 q 340 196 339 190 q 354 271 351 233 q 362 327 357 299 q 373 397 370 361 q 386 486 376 437 q 398 570 394 528 q 412 593 400 589 l 413 593 q 423 598 420 595 q 427 606 427 600 q 411 631 427 624 q 363 640 388 640 q 345 639 354 640 l 323 639 q 255 642 290 639 q 177 646 216 646 l 166 646 q 140 656 145 646 q 132 677 136 662 l 130 680 q 101 702 124 702 q 84 686 89 702 l 82 679 q 52 647 73 647 q 42 648 47 647 l 39 648 q 28 637 28 648 l 29 631 q 45 602 34 613 q 55 585 55 592 l 54 580 q 47 537 49 559 q 41 500 45 518 q 15 378 26 439 q 11 353 12 370 q 6 328 10 340 q -9 260 -4 295 q -23 199 -15 229 l -24 192 q -13 169 -24 180 q 17 156 1 156 q 31 167 30 156 q 35 188 31 178 q 39 208 38 198 q 74 430 49 320 q 104 572 90 501 q 135 600 109 600 l 151 600 q 238 596 194 600 q 278 593 258 594 q 296 594 287 594 q 336 587 329 594 q 339 576 339 584 q 338 563 339 571 q 334 524 335 543 q 323 454 331 488 q 314 391 317 422 q 307 340 311 365 q 288 197 288 235 q 294 156 288 178 q 332 124 301 134 q 338 122 335 123 q 345 120 341 120 z "},"":{"ha":404,"x_min":-28,"x_max":291,"o":"m 9 132 q 50 138 30 134 q 168 157 125 155 l 201 158 q 222 157 210 158 q 250 146 234 156 q 253 146 251 146 q 262 159 262 146 q 260 164 262 162 q 251 174 256 168 q 218 193 234 193 q 176 195 197 195 q 92 188 121 195 q 62 184 72 184 q 50 193 50 184 q 53 203 50 197 q 72 231 58 217 q 164 349 122 287 q 174 369 174 362 q 161 390 174 376 l 155 399 q 135 435 146 418 q 85 524 113 468 l 73 548 q 71 557 71 553 q 87 574 71 572 q 149 583 118 577 q 227 593 187 591 q 250 598 238 593 q 275 602 262 602 l 277 602 q 291 613 291 602 q 288 623 291 617 q 279 633 285 629 q 266 639 274 638 q 132 623 198 639 q 86 617 109 619 q 49 612 66 616 q 28 614 40 614 q 11 611 20 614 q -5 589 -5 605 q 10 564 -5 578 l 12 563 l 18 553 q 40 517 28 543 q 58 482 48 499 q 77 447 68 465 q 111 391 92 417 q 117 373 117 382 q 113 357 117 366 q 22 239 71 296 q -10 193 5 217 l -27 169 q -28 163 -28 165 q -14 141 -28 153 q 9 132 -1 132 z "},"":{"ha":378,"x_min":-10,"x_max":317,"o":"m 98 340 q 217 347 157 340 q 296 355 268 354 q 317 368 317 355 q 274 404 317 404 q 227 397 258 404 q 83 386 165 386 q 8 389 45 386 l 4 389 q -10 379 -10 389 q -5 366 -10 374 q 9 350 1 357 q 24 342 18 343 q 98 340 61 340 z "},"":{"ha":486,"x_min":-32,"x_max":453,"o":"m 120 97 q 145 121 136 97 q 163 168 154 144 q 180 215 172 192 q 196 255 189 235 q 235 353 215 304 q 333 535 277 448 q 447 690 382 618 q 453 701 453 696 q 440 712 453 708 q 430 713 435 713 q 406 701 416 713 q 378 663 393 681 q 254 469 329 597 q 180 316 218 404 q 132 200 150 247 q 129 194 131 197 q 121 192 127 192 q 113 201 115 192 q 77 315 89 256 l 75 324 q 38 456 60 391 q 27 479 34 469 q 4 489 20 489 q -29 463 -22 489 q -30 459 -29 460 q -32 449 -32 454 q -31 443 -32 447 q -17 437 -30 439 q -13 433 -16 437 q -11 429 -12 431 q 6 385 2 408 q 20 330 11 364 q 42 243 34 287 q 60 180 45 210 q 70 153 66 168 q 97 107 79 120 q 120 97 110 97 z "},"":{"ha":431,"x_min":41,"x_max":368,"o":"m 146 334 q 197 357 169 335 q 223 366 210 366 q 268 353 244 366 q 319 339 296 339 q 366 382 355 339 q 368 395 368 389 q 352 427 368 414 q 296 445 329 444 q 240 427 263 445 q 208 414 226 414 q 173 426 192 414 q 146 435 157 435 l 139 435 l 132 435 q 50 395 87 435 q 41 374 41 385 q 41 366 41 373 q 52 352 42 359 q 121 334 81 334 l 146 334 m 111 361 q 95 376 96 361 q 103 395 95 384 q 122 414 111 406 q 140 423 132 423 q 153 418 145 423 q 166 405 160 412 q 172 392 172 398 q 111 361 170 361 m 290 361 q 262 375 275 361 q 257 385 257 380 q 263 397 257 393 q 304 419 282 411 q 313 421 309 421 q 327 400 327 421 q 301 364 327 374 q 290 361 295 361 z "},"":{"ha":236,"x_min":-2,"x_max":244,"o":"m 37 24 q 105 66 85 24 q 142 197 133 130 q 148 294 148 245 q 140 428 148 351 q 130 570 130 521 q 141 618 130 593 q 150 649 146 633 q 172 665 154 665 l 179 664 q 194 663 186 663 q 232 674 214 663 q 244 690 244 682 q 235 707 244 699 q 190 720 222 720 q 127 703 144 720 q 71 543 71 632 q 79 467 71 510 q 90 300 90 412 q 89 257 90 290 q 77 166 89 223 q 73 148 75 157 q 59 101 70 121 q 12 79 47 81 q -2 58 -2 79 q 1 37 -2 45 q 37 24 7 24 z "},"":{"ha":411,"x_min":31,"x_max":368,"o":"m 52 404 q 63 412 58 404 q 117 458 83 442 q 121 462 119 460 q 125 466 123 465 q 129 467 127 467 l 132 467 l 144 463 q 175 450 161 459 q 231 430 199 430 q 286 442 255 430 q 330 496 330 463 q 315 539 330 515 q 305 519 307 531 q 295 504 303 507 q 277 494 286 500 q 245 479 263 484 q 241 479 243 479 q 199 474 220 474 q 150 493 173 474 q 119 507 134 507 l 117 507 q 53 471 87 503 l 48 467 q 31 436 31 451 q 39 413 31 426 q 52 404 46 404 m 265 287 q 351 361 326 287 q 365 396 353 366 q 368 406 367 401 q 355 422 368 416 q 351 423 353 423 q 345 416 348 423 q 334 395 345 412 q 252 330 298 330 q 215 340 235 330 l 197 350 q 121 379 162 373 l 119 379 q 82 366 100 379 q 58 327 58 347 q 60 316 58 322 q 78 303 66 303 q 94 316 87 303 q 131 336 106 334 q 195 315 166 334 q 216 304 206 311 q 260 287 241 287 l 265 287 z "},"":{"ha":263,"x_min":7,"x_max":287,"o":"m 199 282 q 216 290 208 282 q 224 296 220 296 l 227 296 l 233 294 q 240 302 240 294 q 225 326 240 317 q 128 416 163 361 q 112 439 121 428 q 79 475 100 454 q 73 488 73 482 q 106 522 73 505 q 224 600 134 535 q 237 624 237 611 q 228 647 237 635 q 215 654 221 654 q 204 649 210 654 q 191 638 198 644 q 172 623 181 631 q 116 582 146 600 q 83 560 99 571 q 61 545 72 552 q 20 514 39 530 l 19 514 q 7 498 7 505 l 8 494 q 28 460 15 471 q 85 396 63 433 q 182 289 128 336 q 199 282 191 282 m 167 161 q 231 163 199 161 l 252 163 q 273 163 264 163 l 277 163 q 281 164 279 163 q 286 170 284 165 q 287 179 287 174 q 280 198 287 189 q 256 209 273 208 q 203 210 230 210 l 152 209 q 31 214 92 209 l 29 214 q 18 201 18 214 q 31 174 18 188 q 45 165 37 165 q 167 161 140 161 z "},"":{"ha":290,"x_min":-12,"x_max":268,"o":"m 77 282 q 60 290 68 282 q 51 296 56 296 l 42 294 q 35 302 35 294 q 50 326 35 317 q 148 416 112 361 q 184 462 162 440 q 197 475 191 469 q 202 488 202 482 q 194 504 202 496 q 169 522 183 515 q 52 600 140 536 q 38 624 38 611 q 48 647 38 635 q 60 654 54 654 q 72 649 66 654 q 86 637 78 644 q 103 623 94 631 q 159 582 129 600 q 193 560 176 571 l 214 545 q 256 514 236 530 l 257 514 q 268 498 268 505 l 267 494 q 248 460 260 471 q 190 396 212 433 q 93 289 148 336 q 77 282 85 282 m 109 161 q 45 163 77 161 l 24 163 q 2 163 11 163 l -1 163 q -6 164 -3 163 q -10 170 -8 165 q -12 179 -12 174 q -5 198 -12 189 q 19 209 2 208 q 73 210 46 210 l 123 209 q 244 214 184 209 l 247 214 q 258 201 258 214 q 245 174 258 188 q 231 165 238 165 q 109 161 135 161 z "}}}
